<?xml version="1.0" encoding="UTF-8"?>
<svg id="Capa_2" data-name="Capa 2" xmlns="http://www.w3.org/2000/svg" viewBox="0 0 97.54 79.18">
  <defs>
    <style>
      .cls-1 {
        fill: #255787;
      }

      .cls-2 {
        fill: #ea7704;
      }

      .cls-3 {
        fill: #fefefe;
      }
    </style>
  </defs>
  <g id="Capa_2-2" data-name="Capa 2">
    <g>
      <path class="cls-2" d="M18.42,27.06c-7.12-.75-4.99-8.72,1.07-9.66,13.33-.13,26.66-.03,39.98-.24l-12.22-9.97C43.15,3.6,47.58-.24,51.79.01c2.05.12,3.14,1.13,4.68,2.25,9.44,6.85,19.64,14.63,28.67,22.01,28.06,22.96,4.17,60.53-28.85,54.21-3.9-.75-7.84-2.25-11.25-4.27-8.91-5.28-16.24-15.59-14.98-26.36l-19.93,16.13c-7.88,4.8-14.04-3.68-7.16-9.79,11.17-8.77,22.71-17.09,33.84-25.91.46-.36,1.01-.74,1.34-1.22h-19.74ZM62.57,26.95c-15.15.77-25.96,16.59-15.89,29.62,9.06,11.73,29.75,10.04,35.93-3.67,6.19-13.73-6.22-26.66-20.05-25.96Z"/>
      <path class="cls-3" d="M62.57,26.95c13.83-.7,26.24,12.23,20.05,25.96-6.19,13.71-26.87,15.39-35.93,3.67-10.07-13.03.74-28.85,15.89-29.62ZM62.41,33.22c-11.29,1.06-16.13,14.87-6.26,21.5,6.84,4.59,17.87,2.1,20.45-6.17,2.84-9.09-5.51-16.14-14.19-15.32Z"/>
      <path class="cls-1" d="M62.41,33.22c8.68-.81,17.03,6.24,14.19,15.32-2.58,8.27-13.61,10.76-20.45,6.17-9.87-6.62-5.03-20.44,6.26-21.5Z"/>
    </g>
  </g>
</svg>