<?xml version="1.0" encoding="UTF-8"?>
<svg id="Capa_2" data-name="Capa 2" xmlns="http://www.w3.org/2000/svg" viewBox="0 0 471.75 126.01">
  <defs>
    <style>
      .cls-1 {
        fill: #fff;
      }

      .cls-2 {
        fill: #8fc849;
      }
    </style>
  </defs>
  <g id="Dimensions">
    <g>
      <g>
        <rect class="cls-1" x="368.47" y="13.14" width="102.38" height="102.38" rx="6.06" ry="6.06"/>
        <path class="cls-2" d="M374.53,13.14v.89h90.26c1.42,0,2.71.58,3.65,1.52.94.94,1.52,2.23,1.52,3.65v90.26c0,1.42-.58,2.71-1.52,3.65-.94.94-2.23,1.52-3.65,1.52h-90.26c-1.42,0-2.71-.58-3.65-1.52-.94-.94-1.52-2.23-1.52-3.65V19.2c0-1.42.58-2.71,1.52-3.65.94-.94,2.23-1.52,3.65-1.52v-1.79c-3.83,0-6.95,3.12-6.95,6.95v90.26c0,3.83,3.12,6.95,6.95,6.95h90.26c3.83,0,6.95-3.12,6.95-6.95V19.2c0-3.83-3.12-6.95-6.95-6.95h-90.26v.89Z"/>
        <path class="cls-2" d="M263.93,13.2h90.27c3.34,0,6.06,2.71,6.06,6.06v90.27c0,3.34-2.71,6.06-6.06,6.06h-90.27c-3.34,0-6.06-2.71-6.06-6.06V19.25c0-3.34,2.71-6.06,6.06-6.06Z"/>
        <path class="cls-2" d="M354.19,13.2v-.9h-90.27c-3.83,0-6.95,3.12-6.95,6.95v90.27c0,3.83,3.12,6.95,6.95,6.95h90.27c3.83,0,6.95-3.12,6.95-6.95V19.25c0-3.83-3.12-6.95-6.95-6.95v1.79c1.42,0,2.71.58,3.65,1.52.94.94,1.52,2.23,1.52,3.64v90.27c0,1.42-.58,2.71-1.52,3.65-.94.94-2.23,1.52-3.65,1.52h-90.27c-1.42,0-2.71-.58-3.65-1.52-.94-.94-1.52-2.23-1.52-3.65V19.25c0-1.42.58-2.71,1.52-3.64.94-.94,2.23-1.52,3.65-1.52h90.27v-.89Z"/>
        <path class="cls-1" d="M271.63,38.86h1.61v6.5c0,.38,0,.69.02.93s.05.45.09.61c.08.3.21.56.4.78.33.38.72.67,1.18.87s.98.3,1.57.3c.98,0,1.77-.25,2.37-.76.6-.5.9-1.17.9-2.01v-7.23h1.61v7.28c0,1.26-.45,2.29-1.36,3.07-.9.79-2.08,1.18-3.52,1.18-.86,0-1.64-.15-2.33-.46-.69-.31-1.27-.75-1.74-1.34-.29-.34-.49-.73-.62-1.18-.12-.45-.19-1.11-.19-1.99v-6.56Z"/>
        <path class="cls-1" d="M283.48,50.18v-7.48h1.49v.91c.38-.36.75-.62,1.13-.78.37-.16.77-.24,1.18-.24.8,0,1.44.23,1.91.7s.7,1.11.7,1.93v4.95h-1.49v-4.57c0-.6-.13-1.04-.38-1.33-.26-.29-.65-.44-1.19-.44-.38,0-.71.07-1,.22s-.57.39-.86.74v5.38h-1.49Z"/>
        <path class="cls-1" d="M291.7,40.5c0-.23.08-.42.24-.59.16-.17.36-.25.6-.25s.42.08.59.24.25.36.25.6-.08.42-.24.59c-.16.17-.36.25-.6.25s-.42-.08-.59-.24-.25-.36-.25-.6ZM291.8,50.18v-7.48h1.49v7.48h-1.49Z"/>
        <polygon class="cls-1" points="297.67 50.32 294.07 42.7 295.72 42.7 298.03 47.66 300.18 42.7 301.81 42.7 298.36 50.32 297.67 50.32"/>
        <path class="cls-1" d="M309.17,49.38c-.48.31-.99.54-1.53.71-.54.16-1.08.25-1.64.25-1.18,0-2.12-.37-2.82-1.1-.71-.73-1.06-1.71-1.06-2.93,0-1.12.34-2.03,1.02-2.72.68-.69,1.56-1.04,2.65-1.04s1.93.35,2.56,1.06c.63.71.95,1.66.95,2.86v.22h-5.6c0,.34.06.65.18.93.12.28.29.52.51.73.43.39.99.59,1.69.59.49,0,.98-.09,1.49-.26.51-.18,1.04-.44,1.59-.8v1.5ZM303.7,45.64h3.96c-.05-.54-.25-.97-.59-1.3-.35-.33-.78-.5-1.29-.5-.57,0-1.03.15-1.38.45-.35.3-.58.75-.7,1.35Z"/>
        <path class="cls-1" d="M310.71,50.18v-7.48h1.49v1.63c.41-.64.78-1.1,1.12-1.36.33-.26.7-.4,1.08-.4.27,0,.54.06.82.17.28.12.57.3.89.55l-.81,1.33c-.24-.21-.47-.36-.69-.45-.22-.1-.46-.15-.7-.15-.4,0-.75.17-1.05.51-.3.34-.52.81-.66,1.42v4.22h-1.49Z"/>
        <path class="cls-1" d="M316.42,49.67v-1.59c.45.29.88.52,1.3.68.42.16.8.24,1.14.24.39,0,.69-.07.91-.21.22-.14.32-.34.32-.59,0-.31-.41-.67-1.22-1.08l-.55-.28c-.7-.36-1.18-.7-1.44-1.03-.26-.33-.38-.74-.38-1.22,0-.63.22-1.12.67-1.49s1.06-.55,1.85-.55c.43,0,.84.05,1.22.15.38.1.76.25,1.13.47v1.46c-.45-.25-.87-.44-1.26-.56-.18-.06-.36-.11-.54-.14s-.36-.05-.53-.05-.31.01-.42.03c-.11.02-.21.06-.31.13-.17.11-.25.26-.25.47,0,.37.52.82,1.56,1.34l.14.06c.81.4,1.34.76,1.59,1.08.25.32.38.71.38,1.18,0,.66-.25,1.18-.74,1.58-.49.39-1.15.59-1.96.59-.49,0-.94-.05-1.36-.16-.42-.11-.83-.27-1.23-.49Z"/>
        <path class="cls-1" d="M323.09,40.5c0-.23.08-.42.24-.59.16-.17.36-.25.6-.25s.42.08.59.24c.17.16.25.36.25.6s-.08.42-.24.59-.36.25-.6.25-.42-.08-.59-.24-.25-.36-.25-.6ZM323.19,50.18v-7.48h1.49v7.48h-1.49Z"/>
        <path class="cls-1" d="M331.79,49.76c-.27.18-.57.32-.89.42-.32.09-.67.14-1.06.14-1.08,0-1.96-.36-2.64-1.08s-1.02-1.66-1.02-2.81.34-2.08,1.02-2.8c.68-.73,1.56-1.09,2.65-1.09.37,0,.72.05,1.04.14.32.09.62.24.9.44v-4.26h1.49v11.32h-1.49v-.41ZM331.79,48.52v-4.21c-.23-.16-.48-.29-.74-.38-.13-.04-.27-.08-.39-.1-.13-.02-.27-.03-.42-.03-.77,0-1.37.23-1.8.7-.43.46-.65,1.1-.65,1.92s.22,1.44.66,1.91c.44.47,1.04.71,1.8.71.29,0,.56-.04.81-.12s.5-.21.75-.4Z"/>
        <path class="cls-1" d="M338.93,49.56c-.36.25-.72.44-1.08.57-.33.11-.7.17-1.08.17-.66,0-1.19-.16-1.57-.49-.38-.32-.57-.76-.57-1.32,0-.52.2-.98.61-1.38.41-.4,1.03-.74,1.87-1.02l1.78-.59v-.32c0-.44-.11-.76-.33-.96-.22-.2-.58-.3-1.08-.3-.41,0-.83.09-1.27.26-.44.17-.88.43-1.34.79v-1.47c.38-.31.81-.54,1.28-.7.47-.16.98-.24,1.52-.24.95,0,1.65.21,2.09.64.44.42.66,1.11.66,2.05v3.16c0,.27.02.46.07.57.05.11.12.16.23.16.08,0,.17-.02.27-.07.1-.05.27-.16.51-.34v.91c-.26.23-.54.4-.82.51-.28.11-.57.17-.86.17s-.49-.06-.64-.17c-.15-.12-.23-.31-.25-.57ZM338.89,48.66v-2.19c-1.01.31-1.71.59-2.09.86-.38.27-.57.58-.57.93,0,.3.1.54.3.71.2.17.48.25.83.25.28,0,.54-.05.79-.14.25-.09.5-.23.75-.42Z"/>
        <path class="cls-1" d="M347.54,49.76c-.27.18-.57.32-.89.42-.32.09-.67.14-1.06.14-1.08,0-1.96-.36-2.64-1.08-.68-.72-1.02-1.66-1.02-2.81s.34-2.08,1.02-2.8c.68-.73,1.56-1.09,2.65-1.09.37,0,.72.05,1.04.14.32.09.62.24.9.44v-4.26h1.49v11.32h-1.49v-.41ZM347.54,48.52v-4.21c-.23-.16-.48-.29-.74-.38-.13-.04-.27-.08-.39-.1-.13-.02-.27-.03-.42-.03-.77,0-1.37.23-1.8.7-.43.46-.65,1.1-.65,1.92s.22,1.44.66,1.91c.44.47,1.04.71,1.8.71.29,0,.56-.04.81-.12s.5-.21.75-.4Z"/>
        <rect class="cls-1" x="269.23" y="58.63" width="1.62" height="11.32"/>
        <path class="cls-1" d="M273.06,69.95v-7.48h1.49v.91c.38-.36.75-.62,1.13-.78.37-.16.77-.24,1.18-.24.8,0,1.44.23,1.91.7s.7,1.11.7,1.93v4.95h-1.49v-4.57c0-.6-.13-1.04-.38-1.33-.26-.29-.65-.44-1.19-.44-.38,0-.71.07-1,.22s-.57.39-.86.74v5.38h-1.49Z"/>
        <path class="cls-1" d="M286.48,69.53c-.27.18-.57.32-.89.42-.32.09-.67.14-1.06.14-1.08,0-1.96-.36-2.64-1.08-.68-.72-1.02-1.66-1.02-2.81s.34-2.08,1.02-2.8c.68-.73,1.56-1.09,2.65-1.09.37,0,.72.05,1.04.14.32.09.62.24.9.44v-4.26h1.49v11.32h-1.49v-.41ZM286.48,68.29v-4.21c-.23-.16-.48-.29-.74-.38-.13-.04-.27-.08-.39-.1-.13-.02-.27-.03-.42-.03-.77,0-1.37.23-1.8.7-.43.46-.65,1.1-.65,1.92s.22,1.44.66,1.91c.44.47,1.04.71,1.8.71.29,0,.56-.04.81-.12s.5-.21.75-.4Z"/>
        <path class="cls-1" d="M294.79,69.03c-.37.35-.74.61-1.11.78-.37.17-.77.25-1.2.25-.8,0-1.44-.23-1.92-.7s-.71-1.11-.71-1.93v-4.96h1.51v4.58c0,.6.13,1.05.38,1.34.26.29.65.43,1.19.43.38,0,.71-.07,1-.22.15-.08.29-.17.43-.3.14-.12.28-.27.42-.45v-5.39h1.49v7.48h-1.49v-.91Z"/>
        <path class="cls-1" d="M297.68,69.44v-1.59c.45.29.88.52,1.3.68.42.16.8.24,1.14.24.39,0,.69-.07.91-.21.22-.14.32-.34.32-.59,0-.31-.41-.67-1.22-1.08l-.55-.28c-.7-.36-1.18-.7-1.44-1.03-.26-.33-.38-.74-.38-1.22,0-.63.22-1.12.67-1.49s1.06-.55,1.85-.55c.43,0,.84.05,1.22.15.38.1.76.25,1.13.47v1.46c-.45-.25-.87-.44-1.26-.56-.18-.06-.36-.11-.54-.14s-.36-.05-.53-.05-.31.01-.42.03-.21.06-.31.13c-.17.11-.25.26-.25.47,0,.37.52.82,1.56,1.34l.14.06c.81.4,1.34.76,1.59,1.08.25.32.38.71.38,1.18,0,.66-.25,1.18-.74,1.58-.49.39-1.15.59-1.96.59-.49,0-.94-.05-1.36-.16-.42-.11-.83-.27-1.23-.49Z"/>
        <path class="cls-1" d="M308.53,69.71c-.21.12-.45.21-.73.28-.28.07-.57.1-.88.1-.84,0-1.43-.2-1.78-.6-.34-.4-.51-1.13-.51-2.18v-3.54h-1.27v-.15l2.61-2.89h.17v1.74h2.34v1.29h-2.34v3.43c0,.62.08,1.02.23,1.21.16.18.45.27.87.27.24,0,.47-.03.68-.09.21-.06.41-.15.62-.28v1.41Z"/>
        <path class="cls-1" d="M309.75,69.95v-7.48h1.49v1.63c.41-.64.78-1.1,1.12-1.36s.7-.4,1.08-.4c.27,0,.54.06.82.17.28.12.57.3.89.55l-.81,1.33c-.24-.21-.47-.36-.69-.45-.22-.1-.46-.15-.7-.15-.4,0-.75.17-1.05.51-.3.34-.52.81-.66,1.42v4.22h-1.49Z"/>
        <path class="cls-1" d="M315.9,60.27c0-.23.08-.42.24-.59.16-.17.36-.25.6-.25s.42.08.59.24.25.36.25.6-.08.42-.24.59c-.16.17-.36.25-.6.25s-.42-.08-.59-.24-.25-.36-.25-.6ZM316,69.95v-7.48h1.49v7.48h-1.49Z"/>
        <path class="cls-1" d="M323.18,69.33c-.36.25-.72.44-1.08.57-.33.11-.7.17-1.08.17-.66,0-1.19-.16-1.57-.49-.38-.32-.57-.76-.57-1.32,0-.52.2-.98.61-1.38.41-.4,1.03-.74,1.87-1.02l1.78-.59v-.32c0-.44-.11-.76-.33-.96-.22-.2-.58-.3-1.08-.3-.41,0-.83.09-1.27.26-.44.17-.88.43-1.34.79v-1.47c.38-.31.81-.54,1.28-.7.47-.16.98-.24,1.52-.24.95,0,1.65.21,2.09.64.44.42.66,1.11.66,2.05v3.16c0,.27.02.46.07.57.05.11.12.16.23.16.08,0,.17-.02.27-.07.1-.05.27-.16.51-.34v.91c-.26.23-.54.4-.82.51-.28.11-.57.17-.86.17s-.49-.06-.64-.17c-.15-.12-.23-.31-.25-.57ZM323.13,68.43v-2.19c-1.01.31-1.71.59-2.09.86-.38.27-.57.58-.57.93,0,.3.1.54.3.71.2.17.48.25.83.25.28,0,.54-.05.79-.14.25-.09.5-.23.75-.42Z"/>
        <rect class="cls-1" x="326.67" y="58.63" width="1.49" height="11.32"/>
        <path class="cls-1" d="M339.45,69.53c-.27.18-.57.32-.89.42-.32.09-.67.14-1.06.14-1.08,0-1.96-.36-2.64-1.08-.68-.72-1.02-1.66-1.02-2.81s.34-2.08,1.02-2.8c.68-.73,1.56-1.09,2.65-1.09.37,0,.72.05,1.04.14.32.09.62.24.9.44v-4.26h1.49v11.32h-1.49v-.41ZM339.45,68.29v-4.21c-.23-.16-.48-.29-.74-.38-.13-.04-.27-.08-.39-.1-.13-.02-.27-.03-.42-.03-.77,0-1.37.23-1.8.7-.43.46-.65,1.1-.65,1.92s.22,1.44.66,1.91c.44.47,1.04.71,1.8.71.29,0,.56-.04.81-.12s.5-.21.75-.4Z"/>
        <path class="cls-1" d="M349.43,69.15c-.48.31-.99.54-1.53.71-.54.16-1.08.25-1.64.25-1.18,0-2.12-.37-2.82-1.1-.71-.73-1.06-1.71-1.06-2.93,0-1.12.34-2.03,1.02-2.72.68-.69,1.56-1.04,2.65-1.04s1.93.35,2.56,1.06c.63.71.95,1.66.95,2.86v.22h-5.6c0,.34.06.65.18.93.12.28.29.52.51.73.43.39.99.59,1.69.59.49,0,.98-.09,1.49-.26.51-.18,1.04-.44,1.59-.8v1.5ZM343.96,65.41h3.96c-.05-.54-.25-.97-.59-1.3-.35-.33-.78-.5-1.29-.5-.57,0-1.03.15-1.38.45-.35.3-.58.75-.7,1.35Z"/>
        <path class="cls-1" d="M283.88,88.84v-2.14c.51.58,1,1.01,1.47,1.27.47.26.97.39,1.5.39s.99-.13,1.32-.39.5-.62.5-1.07c0-.37-.11-.69-.32-.96-.21-.27-.74-.68-1.57-1.21-1.27-.82-2.07-1.46-2.4-1.91-.33-.46-.49-1-.49-1.62,0-.87.31-1.59.93-2.16.62-.57,1.43-.85,2.41-.85.44,0,.87.06,1.29.19s.85.32,1.29.59v1.84c-.49-.39-.94-.68-1.38-.86-.43-.19-.85-.28-1.26-.28-.51,0-.92.12-1.24.37-.32.25-.48.57-.48.97,0,.56.67,1.26,2,2.09l.24.15c1.08.67,1.79,1.26,2.12,1.78.34.52.51,1.16.51,1.92,0,.86-.31,1.57-.94,2.14-.63.57-1.43.85-2.41.85-.62,0-1.17-.09-1.66-.26-.48-.17-.95-.45-1.42-.83Z"/>
        <path class="cls-1" d="M295.58,89.1c-.36.25-.71.44-1.08.57-.34.11-.7.17-1.08.17-.66,0-1.19-.16-1.57-.49-.38-.32-.57-.76-.57-1.32,0-.52.2-.98.61-1.38.41-.4,1.03-.74,1.87-1.02l1.78-.59v-.32c0-.44-.11-.76-.33-.96-.22-.2-.58-.3-1.08-.3-.41,0-.83.09-1.27.26-.44.17-.88.43-1.34.79v-1.47c.38-.31.81-.54,1.28-.7.47-.16.98-.24,1.52-.24.95,0,1.65.21,2.09.64.44.42.66,1.11.66,2.05v3.16c0,.27.02.46.07.57.05.11.12.16.23.16.08,0,.17-.02.27-.07.1-.05.27-.16.51-.34v.91c-.26.23-.54.4-.82.51-.28.11-.57.17-.86.17s-.49-.06-.64-.17c-.15-.12-.23-.31-.25-.57ZM295.54,88.2v-2.19c-1.02.31-1.71.59-2.09.86-.38.27-.57.58-.57.93,0,.3.1.54.3.71.2.17.48.25.83.25.28,0,.54-.05.79-.14.25-.09.5-.23.75-.42Z"/>
        <path class="cls-1" d="M299.03,89.72v-7.48h1.49v.91c.38-.36.75-.62,1.12-.78.37-.16.77-.24,1.18-.24.8,0,1.44.23,1.91.7.47.47.7,1.11.7,1.93v4.95h-1.49v-4.57c0-.6-.13-1.04-.38-1.33-.26-.29-.65-.44-1.19-.44-.38,0-.71.07-1,.22-.29.15-.57.39-.86.74v5.38h-1.49Z"/>
        <path class="cls-1" d="M311.43,89.48c-.21.12-.45.21-.73.28-.28.07-.57.1-.88.1-.84,0-1.43-.2-1.78-.6-.34-.4-.51-1.13-.51-2.18v-3.54h-1.27v-.15l2.61-2.89h.17v1.74h2.34v1.29h-2.34v3.43c0,.62.08,1.02.23,1.21.16.18.45.27.87.27.24,0,.47-.03.68-.09.21-.06.41-.15.62-.28v1.41Z"/>
        <path class="cls-1" d="M316.36,89.1c-.36.25-.71.44-1.08.57-.34.11-.7.17-1.08.17-.66,0-1.19-.16-1.57-.49-.38-.32-.57-.76-.57-1.32,0-.52.2-.98.61-1.38.41-.4,1.03-.74,1.87-1.02l1.78-.59v-.32c0-.44-.11-.76-.33-.96-.22-.2-.58-.3-1.08-.3-.41,0-.83.09-1.27.26-.44.17-.88.43-1.34.79v-1.47c.38-.31.81-.54,1.28-.7.47-.16.98-.24,1.52-.24.95,0,1.65.21,2.09.64.44.42.66,1.11.66,2.05v3.16c0,.27.02.46.07.57.05.11.12.16.23.16.08,0,.17-.02.27-.07.1-.05.27-.16.51-.34v.91c-.26.23-.54.4-.82.51-.28.11-.57.17-.86.17s-.49-.06-.64-.17c-.15-.12-.23-.31-.25-.57ZM316.32,88.2v-2.19c-1.02.31-1.71.59-2.09.86-.38.27-.57.58-.57.93,0,.3.1.54.3.71.2.17.48.25.83.25.28,0,.54-.05.79-.14.25-.09.5-.23.75-.42Z"/>
        <path class="cls-1" d="M319.81,89.72v-7.48h1.49v.91c.38-.36.75-.62,1.13-.78.37-.16.77-.24,1.18-.24.8,0,1.44.23,1.91.7s.7,1.11.7,1.93v4.95h-1.49v-4.57c0-.6-.13-1.04-.38-1.33-.26-.29-.65-.44-1.19-.44-.38,0-.71.07-1,.22s-.57.39-.86.74v5.38h-1.49Z"/>
        <path class="cls-1" d="M333.24,89.3c-.27.18-.57.32-.89.42-.32.09-.67.14-1.06.14-1.08,0-1.96-.36-2.64-1.08s-1.02-1.66-1.02-2.81.34-2.08,1.02-2.8c.68-.73,1.56-1.09,2.65-1.09.37,0,.72.05,1.04.14.32.09.62.24.9.44v-4.26h1.49v11.32h-1.49v-.41ZM333.24,88.06v-4.21c-.23-.16-.48-.29-.74-.38-.13-.04-.27-.08-.39-.1-.13-.02-.27-.03-.42-.03-.77,0-1.37.23-1.8.7-.43.46-.65,1.1-.65,1.92s.22,1.44.66,1.91c.44.47,1.04.71,1.8.71.29,0,.56-.04.81-.12s.5-.21.75-.4Z"/>
        <path class="cls-1" d="M343.22,88.92c-.48.31-.99.54-1.53.71-.54.16-1.08.25-1.64.25-1.18,0-2.12-.37-2.82-1.1-.71-.73-1.06-1.71-1.06-2.93,0-1.12.34-2.03,1.02-2.72.68-.69,1.56-1.04,2.65-1.04s1.93.35,2.56,1.06c.63.71.95,1.66.95,2.86v.22h-5.6c0,.34.06.65.18.93.12.28.29.52.51.73.43.39.99.59,1.69.59.49,0,.98-.09,1.49-.26.51-.18,1.04-.44,1.59-.8v1.5ZM337.74,85.18h3.96c-.05-.54-.25-.97-.59-1.3-.35-.33-.78-.5-1.29-.5-.57,0-1.03.15-1.38.45-.35.3-.58.75-.7,1.35Z"/>
        <path class="cls-1" d="M344.75,89.72v-7.48h1.49v1.63c.41-.64.78-1.1,1.12-1.36.33-.26.7-.4,1.08-.4.27,0,.54.06.82.17.28.12.57.3.89.55l-.81,1.33c-.24-.21-.47-.36-.69-.45-.22-.1-.46-.15-.7-.15-.4,0-.75.17-1.05.51-.3.34-.52.81-.66,1.42v4.22h-1.49Z"/>
        <path class="cls-2" d="M425.89,70.71v28.84c2.58-.46,5.1-1.21,7.5-2.22h0c.71-.3,1.4-.62,2.09-.96,3.44-1.72,6.62-3.99,9.37-6.77v-29.31h-10.93v-2.36h.01v-17.84c.81.49,1.61,1,2.36,1.56v16.28h8.56v-18.88c-.88-.88-1.8-1.72-2.75-2.5-1.03-.84-2.1-1.62-3.22-2.34-3.95-2.54-8.37-4.28-12.99-5.11v39.25h10.39v18.64c-.75.55-1.54,1.07-2.35,1.57v-17.87h-8.03Z"/>
        <path class="cls-2" d="M415.45,99.87c1.36.16,2.74.24,4.12.24h0c1.33,0,2.64-.08,3.95-.22V28.77c-1.31-.15-2.63-.22-3.95-.22h0c-1.39,0-2.76.08-4.12.24v71.08Z"/>
        <path class="cls-2" d="M402.84,32.78c-3.04,1.65-5.86,3.75-8.36,6.27v50.54c.88.89,1.8,1.72,2.74,2.5,1.02.84,2.09,1.62,3.2,2.33,3.86,2.51,8.16,4.23,12.68,5.08V29.15c-2.49.47-4.92,1.2-7.24,2.18h0c-.22.09-.44.19-.66.29v56.81c-.83-.51-1.62-1.04-2.36-1.58v-54.07Z"/>
      </g>
      <g>
        <path class="cls-1" d="M53.89,70.4c.81,1.12,2.43,1.85,4.04,1.85,2.9,0,5.12-2.18,5.12-5.09,0-.73,0-.99-.34-2.58l-5.73-32.45c-.54-3.04-3.44-5.29-6.81-5.29-3.17,0-5.73,1.98-6.81,5.29l-6.94,21.74-7.55-22.73c-.88-2.64-3.37-4.3-6.4-4.3-3.91,0-6.33,2.05-6.94,5.75l-5.32,32.12c-.2.99-.27,1.78-.27,2.38,0,2.97,2.16,5.16,5.05,5.16,1.62,0,3.23-.73,4.04-1.85.74-1.06.94-1.65,1.35-4.1l3.3-20.75,7.21,21.88c1.08,3.44,2.76,4.82,5.73,4.82,1.62,0,2.96-.46,3.91-1.39.88-.79,1.21-1.52,2.16-4.63l6.33-20.69,3.44,20.75c.47,2.51.61,3.04,1.42,4.1Z"/>
        <path class="cls-1" d="M70.94,34.45c3.17,0,5.73-2.51,5.73-5.68,0-.99-.28-1.93-.75-2.75,2.09-2.37,5.06-5.38,8.87-8.38,4.05-3.19,9.03-6.35,14.87-8.71,5.84-2.36,12.54-3.92,20.1-3.93,1.12,0,2.25.03,3.41.11h0c6.13.37,12.44,2.58,17.07,6.35,2.32,1.89,4.22,4.15,5.55,6.77,1.33,2.63,2.1,5.63,2.1,9.08,0,3.37-.76,7.2-2.52,11.48-2.05-.89-4.28-1.38-6.52-1.38-9.37,0-16.58,7.53-16.58,17.18,0,5.02,1.48,9.19,4.45,12.36,3.03,3.3,7.55,5.29,12.13,5.29,9.43,0,16.51-7.47,16.51-17.38,0-4.76-1.55-9.05-4.45-12.16-.39-.43-.81-.83-1.25-1.21,2.2-5.1,3.22-9.84,3.22-14.18,0-4.21-.96-8.03-2.64-11.34-2.52-4.98-6.61-8.79-11.34-11.41-4.73-2.63-10.12-4.11-15.43-4.44h0C122.22.04,120.98,0,119.76,0c-8.31,0-15.72,1.74-22.12,4.35-9.6,3.91-16.94,9.74-21.89,14.59-1.58,1.55-2.92,3-4.02,4.26-.24-.03-.48-.05-.72-.05-3.23,0-5.86,2.51-5.86,5.62s2.56,5.68,5.79,5.68ZM138.66,63.2c-3.77,0-6.6-3.57-6.6-8.46,0-4.63,2.9-8.26,6.6-8.26,3.91,0,6.94,3.7,6.94,8.33s-3.03,8.39-6.94,8.39Z"/>
        <path class="cls-1" d="M70.87,37.62c-1.82,0-3.57.99-4.31,2.44-.61,1.12-.67,1.72-.67,4.03v21.48c0,2.38.07,2.91.67,4.03.74,1.45,2.49,2.45,4.31,2.45s3.5-.99,4.25-2.45c.61-1.12.67-1.72.67-4.03v-21.48c0-2.38-.07-2.91-.67-4.03-.74-1.45-2.49-2.44-4.25-2.44Z"/>
        <path class="cls-1" d="M105.44,61.41c0-2.38-.88-4.43-2.43-6.08-1.75-1.72-3.17-2.51-7.55-4.23-4.65-1.78-5.19-2.12-5.19-3.37,0-1.06,1.01-1.72,2.63-1.72,1.01,0,2.29.33,3.77.99,3.03,1.32,3.1,1.32,4.18,1.32,2.02,0,3.84-2.05,3.84-4.23,0-3.57-5.26-6.67-11.25-6.67-7.28,0-12.74,4.49-12.74,10.51,0,3.17,1.01,5.35,3.37,7.01,1.68,1.19,3.03,1.85,7.95,3.63,3.03,1.12,3.77,1.72,3.77,2.84,0,1.25-1.28,2.25-2.9,2.25-1.08,0-2.36-.33-3.98-1.06q-3.98-1.72-5.12-1.72c-2.09,0-4.11,2.12-4.11,4.36,0,3.7,5.93,7,12.67,7,7.75,0,13.07-4.43,13.07-10.84Z"/>
        <path class="cls-1" d="M114.27,23.15c-3.23,0-5.86,2.51-5.86,5.62s2.56,5.68,5.79,5.68,5.73-2.51,5.73-5.68-2.56-5.62-5.66-5.62Z"/>
        <path class="cls-1" d="M119.05,44.1c0-2.38-.07-2.91-.67-4.03-.74-1.45-2.49-2.44-4.25-2.44s-3.57.99-4.31,2.44c-.61,1.12-.67,1.72-.67,4.03v21.48c0,2.38.07,2.91.67,4.03.74,1.45,2.49,2.45,4.31,2.45s3.5-.99,4.25-2.45c.61-1.12.67-1.72.67-4.03v-21.48Z"/>
        <path class="cls-1" d="M162.78,72.05c1.75,0,3.5-.99,4.25-2.45.61-1.12.67-1.72.67-4.03v-14.01c0-3.24,2.43-5.75,5.59-5.75,3.37,0,5.53,2.38,5.53,6.15v13.61c0,2.38.07,2.91.67,4.03.74,1.45,2.49,2.45,4.31,2.45s3.5-.99,4.25-2.45c.61-1.12.67-1.72.67-4.03v-15.93c0-4.63-.94-7-3.57-9.32-2.29-1.92-5.19-2.91-8.62-2.91-3.84,0-6.2.92-9.1,3.57-.94-2.38-2.36-3.37-4.58-3.37-3.03,0-5.05,2.25-5.05,5.68v22.27c0,2.38.07,2.91.67,4.03.74,1.45,2.49,2.45,4.31,2.45Z"/>
        <path class="cls-1" d="M31.9,79.1c-1.05-.49-1.58-.55-3.75-.55H8.31c-2.23,0-2.69.06-3.75.55-1.31.61-2.23,2.14-2.23,3.6s.92,3.05,2.23,3.67c1.05.49,1.58.55,3.75.55h4.99v26.75c0,2.32.07,2.81.66,3.91.79,1.34,2.56,2.32,4.4,2.32s3.55-.98,4.34-2.32c.53-1.1.66-1.65.66-3.91v-26.75h4.8c2.23,0,2.69-.06,3.75-.55,1.31-.61,2.23-2.14,2.23-3.67s-.92-2.99-2.23-3.6Z"/>
        <path class="cls-1" d="M42.48,77.94c-1.84,0-3.61.98-4.4,2.32-.53,1.1-.66,1.65-.66,3.91v29.5c0,2.32.07,2.81.66,3.91.79,1.34,2.56,2.32,4.4,2.32s3.55-.98,4.34-2.32c.53-1.1.66-1.65.66-3.91v-29.5c0-2.32-.07-2.81-.66-3.91-.72-1.34-2.56-2.32-4.34-2.32Z"/>
        <path class="cls-1" d="M83.41,109.21c-.66,0-1.45.18-2.23.49q-4.47,1.89-6.96,1.89c-6.96,0-11.1-4.7-11.1-12.58s4.14-12.77,11.04-12.77c1.91,0,3.22.24,5.26,1.04,2.04.79,2.69.98,3.68.98,2.37,0,4.07-1.71,4.07-4.15,0-3.91-5.26-6.6-13.08-6.6-12.81,0-21.75,8.73-21.75,21.26s8.67,21.56,21.88,21.56c7.69,0,13.27-2.87,13.27-6.84,0-2.32-1.84-4.28-4.07-4.28Z"/>
        <path class="cls-1" d="M113.76,108.18c-.71-.38-1.09-.43-2.62-.43h-6.89c2.23-2.19,4.28-4.47,6.32-6.99,3.04-3.76,4.14-6.28,4.14-9.51,0-5.47-4.37-9.6-10.08-9.6s-10.7,4.75-10.7,10.32c0,2.14,1.33,3.57,3.33,3.57.95,0,1.66-.29,2.19-.9.52-.52.67-.95,1.28-3.14.57-2.09,1.81-3.23,3.47-3.23s3.04,1.33,3.04,3.14c0,1.52-.76,3.04-2.85,5.8-1.05,1.33-7.37,8.65-8.99,10.36-1.47,1.62-1.95,2.42-1.95,3.57,0,.76.29,1.47.86,2.04.71.76,1.47,1,3.19,1h13.65c1.57,0,1.9-.05,2.66-.43.9-.48,1.57-1.62,1.57-2.81s-.67-2.28-1.62-2.76Z"/>
        <path class="cls-1" d="M130.68,81.65c-2.76,0-5.75,1.43-7.75,3.71-2.57,2.95-3.9,7.32-3.9,12.7,0,5.99,1.24,10.13,3.9,13.22,2,2.28,4.99,3.71,7.8,3.71,6.8,0,11.74-7.04,11.74-16.69s-4.95-16.64-11.79-16.64ZM130.77,107.85c-2.71,0-4.28-3.57-4.28-9.65s1.62-9.41,4.28-9.41c2.47,0,4.23,3.99,4.23,9.51s-1.76,9.56-4.23,9.56Z"/>
        <path class="cls-1" d="M146.91,87.23c0,2.14,1.33,3.57,3.33,3.57.95,0,1.66-.29,2.19-.9.52-.52.67-.95,1.28-3.14.57-2.09,1.81-3.23,3.47-3.23s3.04,1.33,3.04,3.14c0,1.52-.76,3.04-2.85,5.8-1.05,1.33-7.37,8.65-8.99,10.36-1.47,1.62-1.95,2.43-1.95,3.57,0,.76.29,1.47.86,2.04.71.76,1.47,1,3.19,1h13.65c1.57,0,1.9-.05,2.66-.43.9-.48,1.57-1.62,1.57-2.81s-.67-2.28-1.62-2.76c-.71-.38-1.09-.43-2.62-.43h-6.89c2.23-2.19,4.28-4.47,6.32-6.99,3.04-3.76,4.14-6.28,4.14-9.51,0-5.47-4.37-9.6-10.08-9.6s-10.7,4.75-10.7,10.32Z"/>
        <path class="cls-1" d="M171.63,87.23c0,2.14,1.33,3.57,3.33,3.57.95,0,1.66-.29,2.19-.9.52-.52.67-.95,1.28-3.14.57-2.09,1.81-3.23,3.47-3.23s3.04,1.33,3.04,3.14c0,1.52-.76,3.04-2.85,5.8-1.05,1.33-7.37,8.65-8.99,10.36-1.47,1.62-1.95,2.43-1.95,3.57,0,.76.29,1.47.86,2.04.71.76,1.47,1,3.19,1h13.65c1.57,0,1.9-.05,2.66-.43.9-.48,1.57-1.62,1.57-2.81s-.67-2.28-1.62-2.76c-.71-.38-1.09-.43-2.62-.43h-6.89c2.23-2.19,4.28-4.47,6.32-6.99,3.04-3.76,4.14-6.28,4.14-9.51,0-5.47-4.37-9.6-10.08-9.6s-10.7,4.75-10.7,10.32Z"/>
        <path class="cls-1" d="M7.73,56.39c.88-.67,1.06-1.92.39-2.8h0s-3.61-4.78-3.61-4.78l3.61-4.78c.67-.88.49-2.14-.39-2.8-.88-.67-2.14-.49-2.8.39L.4,47.6c-.54.71-.54,1.7,0,2.41l4.52,5.98c.67.88,1.92,1.06,2.8.39Z"/>
        <path class="cls-1" d="M205.19,92.32l-4.52-5.98c-.67-.88-1.92-1.06-2.8-.39-.88.67-1.06,1.92-.39,2.8h0s3.61,4.78,3.61,4.78l-3.61,4.78c-.67.88-.49,2.14.39,2.8.88.67,2.14.49,2.8-.39l4.52-5.98c.54-.71.54-1.7,0-2.41Z"/>
        <path class="cls-1" d="M190.08,113.44h0c-5.52,2.83-12.53,4.58-20.17,4.57-7.64,0-14.66-1.74-20.17-4.57-1.97-1.01-4.38-.23-5.39,1.73-1.01,1.97-.23,4.38,1.73,5.39,6.76,3.46,14.97,5.45,23.82,5.45,8.85,0,17.06-1.99,23.82-5.45,1.97-1.01,2.74-3.42,1.73-5.38-1.01-1.97-3.42-2.74-5.38-1.73Z"/>
      </g>
    </g>
  </g>
</svg>