<?xml version="1.0" encoding="UTF-8"?>
<svg id="Capa_2" data-name="Capa 2" xmlns="http://www.w3.org/2000/svg" viewBox="0 0 352.06 149.6">
  <defs>
    <style>
      .cls-1 {
        fill: #fff;
      }
    </style>
  </defs>
  <g id="Capa_2-2" data-name="Capa 2">
    <g>
      <path class="cls-1" d="M135.34,42.88h2.53v8.77c0,2.69,1.37,3.7,3.85,3.7,1.58,0,2.69-.95,2.69-3.01v-9.45h2.43v8.92c0,3.54-2.06,5.49-6.02,5.49-3.43,0-5.49-1.64-5.49-4.86v-9.56ZM162.59,57.35l-7.55-10.83v10.56h-2.32v-14.15h2.53l7.18,10.51v-10.51h2.27v13.99l-2.11.42ZM173.47,57.03h-2.53v-14.15h2.53v14.15ZM178.06,43.04l2.59-.42,4.07,11.72,3.96-11.46h2.59l-5.39,14.05-2.53.42-5.28-14.31ZM195.86,42.88h8.87l-.21,1.9c-2.01-.05-4.07-.05-6.07-.11v4.22h5.65l-.26,1.69-5.39-.11v4.7l6.71-.11-.21,1.95h-9.03v-14.15h-.05ZM212.6,51.17v5.86h-2.53v-14.15h4.86c3.06,0,4.86,1.21,4.86,3.59,0,1.95-1.11,3.27-2.59,4.01l3.75,6.55h-2.85l-2.96-5.91c-.42.05-.79.11-1.16.11-.42,0-.9-.05-1.37-.05ZM217.14,47.21c0-1.69-.95-2.59-3.12-2.59-.53,0-1,0-1.48.05v4.81c.58.05,1.16.11,1.9.11,1.43-.11,2.69-.69,2.69-2.38ZM225.43,46.47c0-2.22,2.17-3.91,5.23-3.91,1.69,0,3.27.21,4.28.53l-.48,2.06c-1.37-.48-2.85-.79-4.49-.79-1.32,0-2.22.58-2.22,1.74s.84,1.74,3.12,2.64c3.59,1.43,4.38,2.48,4.38,4.33,0,2.53-2.32,4.28-5.97,4.28-1.48,0-3.12-.26-4.17-.58l.48-2.11c1.43.53,3.01.9,4.81.9,1.27,0,2.38-.63,2.38-1.74,0-1.21-.63-1.95-3.27-2.96-2.85-1.16-4.07-2.17-4.07-4.38ZM243.01,57.03h-2.53v-14.15h2.53v14.15ZM254.1,42.88c4.38,0,7.18,2.38,7.18,6.65,0,4.75-3.59,7.5-8.34,7.5h-3.75v-14.15h4.91ZM251.73,55.18c.63.05,1.64.11,2.48.11,2.27,0,4.44-1.32,4.44-5.28,0-3.75-2.43-5.28-5.39-5.28h-1.58v10.46h.05ZM273.64,53.18h-5.54l-1.37,3.85h-2.53l5.44-14.1,2.64-.37,5.39,14.42h-2.69l-1.32-3.8ZM270.84,45.25l-2.11,6.02h4.22l-2.11-6.02ZM287.21,42.88c4.38,0,7.18,2.38,7.18,6.65,0,4.75-3.59,7.5-8.34,7.5h-3.75v-14.15h4.91ZM284.84,55.18c.63.05,1.64.11,2.48.11,2.27,0,4.44-1.32,4.44-5.28,0-3.75-2.43-5.28-5.39-5.28h-1.58v10.46h.05Z"/>
      <path class="cls-1" d="M154.14,97.8l-14.31-20.49v19.96h-4.38v-26.77h4.81l13.62,19.86v-19.86h4.33v26.46l-4.07.84ZM183.13,89.93h-10.51l-2.59,7.34h-4.75l10.35-26.67,4.96-.63,10.24,27.3h-5.07l-2.64-7.34ZM177.85,74.98l-4.01,11.41h8.03l-4.01-11.41ZM217.14,95.9c-1.95,1.11-5.6,1.9-8.55,1.9-7.71,0-13.36-4.65-13.36-13.68,0-8.34,5.6-14.2,14.2-14.2,3.33,0,6.23.53,7.5,1.16l-1.16,3.75c-1.74-.58-4.54-1.37-7.76-1.37-3.8,0-7.82,2.27-7.82,9.93,0,8.08,5.07,10.72,9.77,10.72,2.48,0,4.96-.69,6.18-1.43l1,3.22ZM229.65,97.22h-4.81v-26.77h4.81v26.77ZM250.25,97.8c-7.23,0-12.25-4.86-12.25-13.41,0-9.14,6.02-14.47,14.47-14.47,7.23,0,12.25,4.91,12.25,13.47.05,9.03-5.97,14.42-14.47,14.42ZM250.62,73.45c-4.22,0-7.6,2.69-7.6,9.66,0,7.97,3.7,11.14,9.14,11.14,4.28,0,7.66-2.64,7.66-9.72-.05-7.92-3.8-11.09-9.19-11.09ZM291.7,97.8l-14.31-20.49v19.96h-4.38v-26.77h4.81l13.62,19.86v-19.86h4.33v26.46l-4.07.84ZM320.74,89.93h-10.51l-2.59,7.34h-4.75l10.35-26.72,4.96-.63,10.24,27.3h-5.07l-2.64-7.29ZM315.41,74.98l-4.01,11.41h8.03l-4.01-11.41ZM335.58,70.44h4.81v23.29l11.67-.16-.48,3.64h-16v-26.77h0Z"/>
      <path class="cls-1" d="M140.68,110.95c4.38,0,7.18,2.38,7.18,6.65,0,4.75-3.59,7.5-8.34,7.5h-3.75v-14.15h4.91ZM138.3,123.2c.63.05,1.64.11,2.48.11,2.27,0,4.44-1.32,4.44-5.28,0-3.75-2.43-5.28-5.39-5.28h-1.58v10.46h.05ZM152.87,110.95h8.87l-.21,1.9c-2.01-.05-4.07-.05-6.07-.11v4.22h5.65l-.26,1.69-5.39-.11v4.7l6.71-.11-.21,1.95h-9.03v-14.15h-.05Z"/>
      <path class="cls-1" d="M184.82,124.36c-1.06.58-2.96,1-4.54,1-4.07,0-7.02-2.43-7.02-7.23,0-4.44,2.96-7.5,7.5-7.5,1.74,0,3.27.26,3.96.58l-.58,2.01c-.9-.32-2.38-.74-4.12-.74-2.01,0-4.12,1.21-4.12,5.28,0,4.28,2.69,5.65,5.17,5.65,1.32,0,2.64-.37,3.27-.74l.48,1.69ZM194.75,125.36c-3.8,0-6.5-2.59-6.5-7.08,0-4.81,3.17-7.66,7.66-7.66,3.8,0,6.5,2.59,6.5,7.13s-3.17,7.6-7.66,7.6ZM194.91,112.53c-2.22,0-4.01,1.43-4.01,5.12,0,4.22,1.95,5.91,4.81,5.91,2.27,0,4.07-1.37,4.07-5.12,0-4.28-1.95-5.91-4.86-5.91ZM207.53,110.95h2.53v12.3l6.18-.11-.26,1.95h-8.45v-14.15ZM226.01,125.36c-3.8,0-6.5-2.59-6.5-7.08,0-4.81,3.17-7.66,7.66-7.66,3.8,0,6.5,2.59,6.5,7.13-.05,4.75-3.22,7.6-7.66,7.6ZM226.17,112.53c-2.22,0-4.01,1.43-4.01,5.12,0,4.22,1.95,5.91,4.81,5.91,2.27,0,4.07-1.37,4.07-5.12,0-4.28-2.01-5.91-4.86-5.91ZM241.22,114.11l-1.06,10.93h-2.38l1.74-14.15h2.69l4.38,11.3,4.22-11.3h2.69l1.69,14.15h-2.48l-1.11-10.98-3.96,10.56h-.11v.05l-2.22.37-4.12-10.93ZM260.6,110.95h4.59c3.12,0,4.81,1.21,4.81,3.33,0,1.58-1,2.64-2.27,3.33,1.58.26,3.33,1.16,3.33,3.27,0,2.53-2.32,4.17-6.28,4.17h-4.12v-14.1h-.05ZM267.52,115.01c0-1.48-.79-2.38-3.22-2.38-.26,0-.74,0-1.16.05v4.38c.53,0,1.06.05,1.48.05,2.22,0,2.9-.84,2.9-2.11ZM268.47,121.19c0-1.64-1.32-2.53-3.59-2.53-.48,0-1.16.05-1.74.05v4.59c.79.05,1.74.05,2.64.05,1.48-.05,2.69-.58,2.69-2.17ZM278.55,125.1h-2.53v-14.15h2.53v14.15ZM292.39,121.19h-5.54l-1.37,3.85h-2.53l5.44-14.1,2.64-.37,5.39,14.42h-2.69l-1.32-3.8ZM289.59,113.32l-2.11,6.02h4.22l-2.11-6.02Z"/>
      <g>
        <g>
          <path class="cls-1" d="M109.31,59.14c0-5.23-2.48-9.66-6.5-11.62l-.37-.16.16.37c.11.26.11.48.11.74,0,1.27-.74,2.53-1.58,3.96-1.27,2.17-2.9,4.81-2.9,8.98,0,5.97,3.49,11.99,8.5,14.52l.32.16-.16-.32c-.26-.63-.42-1.43-.42-2.11,0-2.32.63-4.65,1.32-7.08.84-2.43,1.53-4.91,1.53-7.45ZM102.97,51.91c-.53,2.27-1.11,6.07-1.16,8.03-.05,1.9.11,4.81.42,6.23l.21,1.06.05-1.06c.16-2.17.37-4.33.53-6.18.37-3.8.74-6.39,1.21-8.34.42,1.9.53,4.59.53,5.81,0,3.06-.11,6.76-.79,11.99h0c1.32-4.49,2.17-9.08,2.17-11.99,0-1.95-.21-4.59-.53-6.18,1.48,2.06,2.27,4.81,2.27,7.92,0,2.38-.69,4.75-1.37,7.08-.69,2.32-1.37,4.75-1.37,7.23-3.7-3.27-5.54-7.34-5.54-12.09.05-3.17,1.21-5.86,3.38-9.51Z"/>
          <path class="cls-1" d="M80.69,39.34c0,1.74,1,3.38,1.95,4.17l.21.16.05-.26c.26-1.69,3.01-3.96,6.55-4.49h.11c2.64-2.06,3.8-5.76,3.8-8.55,0-3.8-1.85-6.39-3.64-8.87-.9-1.27-1.8-2.53-2.48-3.96.53.21,1.16.32,1.95.32,2.32,0,4.07-1.74,4.07-4.01,0-3.01-2.48-5.23-5.86-5.23-4.28,0-8.55,3.7-8.55,11.99,0,2.06.37,9.14,5.07,14.63-2.01.53-3.22,2.17-3.22,4.12ZM88.45,15.89c.37-.32.53-.79.53-1.27,0-.9-.63-1.8-1.8-1.8s-1.9.9-1.9,2.17c0,2.32,1.48,4.44,3.01,6.71,1.8,2.59,3.64,5.28,3.64,8.66,0,1.64-.48,3.91-1.53,5.44.26-5.91-1.48-8.82-3.17-11.62-.95-1.58-2.17-3.12-2.8-5.23h0c.42,2.53,1.27,4.33,2.11,6.13,1.27,2.69,2.59,5.44,2.32,10.67-6.6-11.19-6.71-17.16-6.02-21.12l.16-1.06-.42,1c-2.11,4.7-.37,12.15,5.12,22.23-2.11-.32-3.8.42-4.54,2.01l-.21.53.42-.37c1.11-.84,2.59-1.11,3.85-.69-2.59.63-3.8,1.74-4.81,3.22-.37-.53-.58-1.32-.58-2.17,0-1.8,1.27-3.01,3.54-3.54l.21-.05-.16-.16c-4.59-5.49-5.54-11.19-5.54-15,0-7.39,3.8-10.72,7.34-10.72,2.75,0,4.49,1.58,4.49,4.01,0,1.64-1.21,2.9-2.69,2.9-.9,0-1.58-.11-2.01-.37.74-.11,1.16-.32,1.43-.53Z"/>
          <path class="cls-1" d="M97.85,43.99h.05c2.01,0,3.96,1.37,5.97,2.8,2.27,1.64,4.65,3.33,7.5,3.33s5.17-2.01,5.17-4.65c0-2.8-2.17-4.49-4.22-4.49-1.37,0-2.32.69-2.53,1.8-.58-.58-1.21-1.16-2.17-1.58,3.01-1.74,4.7-5.23,4.17-8.5v-.05l-.05-.05c-.32-.16-1.27-.42-2.9-.42s-3.59.63-4.91,1.58c-.05-2.11-.58-3.49-1.11-4.65-.42-1.06-.84-2.06-.84-3.49,0-.69.11-1.48.32-2.27l.05-.16h-.16c-3.85.05-7.87,4.17-7.87,10.88-.11,3.49,1.37,7.45,3.54,9.93h0ZM100.33,24.71c.05,0,.11-.05.11-.05.11-.05.26-.11.37-.11-.11.37-.16.9-.16,1.37,0,1.16.37,2.17.79,3.22.53,1.27,1.11,2.75,1.11,4.86,0,1.27-.11,2.11-.32,2.8l-.26.84.53-.74c1.74-2.38,3.91-3.59,6.39-3.59.63,0,1.11.05,1.64.16.11,2.59-1.32,5.91-5.65,7.71l-.48.21.48.05c2.43.37,3.49,1.43,4.33,2.22.63.63,1.16,1.16,2.11,1.16s1.64-.69,1.64-1.64c0-.42-.16-.74-.48-1-.05-.05-.16-.11-.21-.16,1.8,0,2.85,1.69,2.85,3.33,0,1.95-1.58,3.38-3.8,3.38s-4.59-1.53-6.76-3.06c-1.06-.74-2.22-1.48-3.33-2.06,1.06,0,2.85.11,4.44,1.11l.32.21c2.9,1.85,5.44,3.49,7.29,1.21l.74-.9-.95.69c-1.58,1.21-3.12.16-5.49-1.37-.48-.32-.9-.58-1.43-.9-1.48-.95-3.64-1.06-4.81-1.11,2.27-1.27,4.65-3.06,5.81-4.49l.53-.63-.74.42c-.53.32-1.06.63-1.58,1-1.48.95-3.01,1.9-4.65,2.75,1.64-2.27,4.54-4.75,7.66-6.71l.84-.53-.95.26c-2.96.84-6.28,3.7-8.5,6.28.48-1.9,1.21-5.7.9-9.08l-.11-1.16-.16,1.16c-.42,2.96-1.11,6.07-1.85,8.71-.74-4.54-.48-8.92.69-13.36l.21-.84-.48.74c-1.9,2.9-2.43,7.29-1.74,13.68-.9-1.58-1.74-4.44-1.74-6.81.05-4.59,1.8-7.97,4.86-9.24Z"/>
          <path class="cls-1" d="M55.55,44.36c.53,0,1-.48,1.43-1.43l.21-.42-.42.26c-.11.05-.21.11-.26.16.11-.16.21-.32.32-.53l.21-.37-.37.21c-1.16.58-1.64,1.06-1.64,1.69-.05.21.11.42.53.42Z"/>
          <path class="cls-1" d="M114.91,74.35c-.95-.9-2.06-1.32-3.27-1.27-1.69.05-2.8,1.06-2.8,2.53,0,1.16.84,2.06,1.9,2.06.21,0,.37,0,.53-.05-.63.74-1.85.79-2.38.79-3.38,0-6.65-2.32-8.29-5.91l-.16-.37-.11.42c-.26,1.27-.42,2.64-.42,4.22,0,3.33.95,6.13,2.8,8.03,1.64,1.74,3.91,2.69,6.34,2.69,4.59,0,7.87-3.33,7.87-7.87.05-2.11-.69-4.07-2.01-5.28ZM108.99,83.7c2.32,0,4.22-1.48,4.96-3.91l.37-1.21-.63,1.11c-1.06,1.85-2.48,2.64-4.7,2.64-2.8,0-5.65-2.27-6.81-5.39,1.69,1.48,3.7,2.8,6.76,2.8,2.48,0,4.22-1.43,4.22-3.49,0-1.11-.69-1.95-1.64-2.01h.16c2.22,0,3.96,2.38,3.96,5.39,0,3.7-2.8,6.55-6.55,6.55-4.12,0-6.97-2.8-7.76-7.6,1.69,3.22,4.49,5.12,7.66,5.12Z"/>
          <path class="cls-1" d="M53.12,86.55c1.37-1,1.06-2.01.58-2.9l-1.85-4.01h-.53l1.43,4.07c-.05.16-.11.32-.16.53-.16.37-.32.84-.21,1.27-.53-.16-1.06,0-1.53.16-.32.11-.63.21-.95.21h-.32l.21.21c.63.69,1.16,1.06,1.8,1.06.48.05.95-.16,1.53-.58Z"/>
          <path class="cls-1" d="M50.27,84.96c.21.16.48.21.74.21.16,0,.32-.05.48-.11h0c.37-.16.74-.42.74-.95,0-1.06-1-1.85-1.9-2.27v-4.65h-.48v.11c-.16,2.43-.21,3.8-.26,4.65-.05.79-.05,1.11-.05,1.37-.05.69.26,1.32.74,1.64Z"/>
          <path class="cls-1" d="M58.51,82.38c1.48,0,2.85-.95,3.17-2.11l2.59-3.85h-.58l-2.75,3.54c-.16.05-.32.11-.48.21-.79.32-1.58.63-1.95,1.11-.32-.48-1.16-.79-1.9-1.11-.16-.05-.37-.16-.53-.21l-2.75-3.54h-.58l2.59,3.75c.32,1.32,1.64,2.22,3.17,2.22Z"/>
          <path class="cls-1" d="M55.02,87.92h0c.58-.69.9-1.32.84-1.95-.05-.53-.32-1.06-.84-1.53l-.21-.21v.32c0,.26-.21.63-.37,1-.26.48-.53,1-.42,1.43-.48-.05-.95.21-1.37.48-.37.21-.69.42-.95.42h-.26l.16.21c.48.63.95.95,1.53.95h.05c.58-.05,1.21-.42,1.85-1.11Z"/>
          <path class="cls-1" d="M58.51,80.21c1.32,0,2.59-.84,3.06-2.01l1.85-3.49h-.58l-1.8,2.9c-.16.05-.32.16-.53.21-.79.32-1.64.63-2.06,1.21-.37-.58-1.21-.9-2.01-1.21-.21-.05-.37-.16-.53-.21l-1.9-2.9h-.58l2.01,3.43c.32,1.21,1.58,2.06,3.06,2.06Z"/>
          <path class="cls-1" d="M85.81,90.09c-.58,0-1.16.16-1.8.32-.69.16-1.37.37-2.11.37-3.01,0-5.02-1.21-6.55-3.85l-.05-.05h-1.64l-1.16,1.64.05.05c.42.74.53,1.37.53,1.85,0,.69-.26,1.32-.58,2.11-.53,1.32-1.16,2.96-1.16,5.65,0,2.9,1,4.86,1.8,6.39.58,1.11,1.06,2.01,1.06,3.01,0,.37-.21.74-.63.95l-.11.05.63,1.53h2.75l10.67-16.69c.16-.26.42-.84.42-1.43-.11-1.06-1-1.9-2.11-1.9ZM83.06,92.41v3.96l-.9,1.27v-5.12c.32,0,.63-.05.9-.11ZM84.01,92.2c.21-.05.42-.16.58-.21.21-.11.37-.16.48-.16.16,0,.32.11.42.26.11.21.11.42,0,.58l-1.53,2.22v-2.69h.05ZM81.22,92.57v6.55l-.9,1.27v-7.87c.37.05.63.05.9.05ZM79.42,92.36v9.45l-.95,1.43v-11.19c.05,0,.11.05.21.05.16.11.42.16.74.26ZM73.29,97.8c0-2.32.48-3.7.9-5.02.37-1,.69-1.95.74-3.22l.69.69v15.16c-.21-.53-.42-1-.69-1.53-.79-1.53-1.64-3.22-1.64-6.07ZM77.52,91.57v13.04l-.95,1.43v-15.05c.32.26.69.48.95.58Z"/>
          <path class="cls-1" d="M58.51,76.2c.58,0,1.16-.63,1.16-1.21,0-.53-.16-.9-.42-1.37-.11-.21-.21-.42-.32-.69l-.16-2.69h-.53l-.16,2.69c-.11.26-.21.48-.32.69-.26.53-.42.84-.42,1.37,0,.58.58,1.21,1.16,1.21Z"/>
          <path class="cls-1" d="M58.51,78.05c1.43,0,2.17-1,2.64-2.01l1.16-3.33h-.48l-1.32,2.75c-.11.05-.26.11-.37.16-.58.26-1.32.58-1.64,1.16-.32-.58-1.11-.9-1.85-1.21-.11-.05-.21-.11-.26-.11l-1.16-2.75h-.48l1.16,3.33c.21.95,1.06,2.01,2.59,2.01Z"/>
          <path class="cls-1" d="M62.36,88.87c-.42-.32-.84-.69-1.37-.58.16-.53,0-1.06-.16-1.53-.11-.37-.26-.74-.21-1.11l.05-.26-.26.16c-.53.32-.95.95-1.06,1.64-.05.53.05,1.06.37,1.43l-.74.58v-4.07c1.37-.16,2.85-1.11,3.12-2.64l3.01-4.38h-.58l-3.17,3.96c-.16.05-.37.16-.58.21-.9.32-1.9.63-2.22,1.21-.37-.58-1.37-.9-2.22-1.21-.21-.05-.42-.16-.58-.21l-3.17-3.96h-.58l3.01,4.38c.32,1.53,1.74,2.48,3.12,2.64v4.07l-.74-.58c.32-.37.42-.9.37-1.43-.11-.69-.48-1.32-1.06-1.64l-.26-.16.05.26c.05.32-.05.69-.21,1.11-.16.48-.32,1-.16,1.53-.53-.16-1.06.26-1.48.63-.26.21-.53.42-.79.53l-.26.11.21.16c1.06.79,2.06.69,3.06-.32l.84.63-2.8,2.11,1.16.37,2.01-1.53v2.27l.48.21.48-.21v-2.27l2.17,1.53,1.16-.37-2.9-2.11.84-.63c1.06,1,2.06,1.11,3.06.32l.21-.16-.26-.05c-.37-.16-.69-.37-.95-.63Z"/>
          <path class="cls-1" d="M99.75,133.44c-.9,0-1.8.16-2.69.53-1.37-1.53-3.17-2.43-5.02-2.43-2.38,0-3.8,1.21-3.8,3.12,0,.79.26,1.48.69,2.01-.95-.42-1.85-.84-2.8-1.27-.74-.32-1.53-.69-2.43-1.11-3.59-1.64-15.95-6.86-24.71-7.02,4.49-2.32,8.98-3.85,13.31-5.33,4.12-1.37,8.03-2.69,11.51-4.65,4.65-2.75,7.92-6.18,10.24-10.88,2.8-5.6,4.22-13.04,4.49-22.76v-.16h-.16c-3.22,0-4.75-1.06-4.75-3.27,0-1.95.79-3.12,4.59-3.12h.16v-.16c0-2.96-.48-5.33-.9-7.66-.42-2.27-.9-4.59-.9-7.45,0-2.48.58-7.5,4.44-12.73l.05-.05-1.58-3.06-.11.05c-1.53.53-3.17.16-4.28-.9-.95-.95-1.27-2.48-.84-4.07l.05-.11-3.17-1.74-.05.05c-5.07,4.81-10.61,7.29-16.11,7.29-2.75,0-6.97-.53-11.35-2.96l-.11-.05-5.02,6.86-5.02-6.86-.11.05c-4.38,2.48-8.61,2.96-11.35,2.96-5.54,0-10.93-2.48-16.11-7.29l-.05-.05-3.17,1.74.05.11c.42,1.58.11,3.12-.84,4.07-1.11,1.11-2.75,1.43-4.28.9l-.11-.05-1.58,3.06.05.05c3.85,5.23,4.44,10.19,4.44,12.73,0,2.85-.42,5.17-.9,7.45-.42,2.32-.9,4.7-.9,7.66v.16h.16c3.85,0,4.65,1.21,4.65,3.12,0,2.22-1.53,3.27-4.75,3.27h-.16v.16c.26,9.72,1.74,17.16,4.49,22.76,2.32,4.7,5.6,8.13,10.24,10.88,3.49,1.9,7.39,3.22,11.51,4.65,4.33,1.48,8.77,2.96,13.31,5.33-8.77.16-21.12,5.39-24.71,7.02-.9.37-1.64.74-2.38,1.06-1,.42-1.85.84-2.85,1.27.42-.53.69-1.21.69-2.01,0-1.95-1.48-3.12-3.8-3.12-1.85,0-3.64.9-5.02,2.43-.63-.26-1.58-.53-2.69-.53-2.69,0-4.33,1.43-4.33,3.75v6.44c0,3.64,2.69,5.7,7.34,5.7,4.22,0,8.5-1.8,15.21-4.75,8.24-3.64,14.73-6.5,22.97-6.5s14.79,2.85,22.97,6.5c6.71,2.96,10.98,4.75,15.21,4.75,4.65,0,7.34-2.06,7.34-5.7v-6.44c.05-2.27-1.58-3.7-4.28-3.7ZM20.91,69.6c.42-2.75.9-5.54.9-7.87,0-4.01-1.64-8.77-4.33-12.67l.74-1.48c1.69.32,3.38-.21,4.59-1.43,1.06-1.06,1.58-2.69,1.43-4.38l1.53-.79c5.17,4.7,10.67,7.13,16.32,7.13,3.85,0,7.76-.9,11.09-2.53l4.54,6.39v16.74c-1.8,1.32-4.59,2.11-7.34,2.11-.58,0-1.21-.05-1.74-.16h-.05l-1.74,2.11.05.05c.48,1.16.69,2.38.69,3.96,0,1.06-.11,1.95-.26,2.85h-22.39c-.21-2.17-1.85-3.49-4.7-3.8-.05-1.64.32-3.85.69-6.23ZM92.83,41.82c-.16,1.69.37,3.33,1.43,4.38,1.21,1.21,2.9,1.74,4.59,1.43l.74,1.48c-2.69,3.91-4.33,8.66-4.33,12.67,0,2.32.42,5.12.9,7.87.37,2.38.74,4.65.74,6.28-2.85.32-4.49,1.64-4.7,3.8h-22.39c-.11-.9-.26-1.8-.26-2.85,0-1.58.21-2.8.69-3.96l.05-.05-1.74-2.11h-.05c-.53.05-1.11.16-1.74.16-2.75,0-5.6-.79-7.34-2.11v-16.74l4.54-6.39c3.33,1.64,7.29,2.53,11.09,2.53,5.65,0,11.14-2.38,16.32-7.13l1.48.74ZM70.39,121.19c-3.75,1.27-7.6,2.53-11.04,4.22v-29.99c9.08-3.12,10.83-6.65,10.83-12.2,0-.69-.11-1.37-.16-1.9,0-.11,0-.21-.05-.26h22.23c.16,1.58,1.11,3.49,4.81,3.8-.37,16-4.96,26.24-14.05,31.37-3.75,2.06-8.24,3.54-12.57,4.96ZM67.91,72.08l.79.95-.05.21c-.26,1.11-.48,2.17-.48,3.54,0,1,.16,2.17.26,3.33.11,1.06.26,2.06.26,2.8,0,5.28-1.53,8.29-10.19,11.14-8.66-2.85-10.19-5.86-10.19-11.14,0-.79.11-1.74.26-2.8.16-1.11.26-2.32.26-3.33,0-1.37-.21-2.43-.48-3.54l-.05-.21.79-.95h.05c.37.05.63.11,1,.11,3.33,0,6.02-.74,8.29-2.27,2.27,1.53,5.02,2.27,8.29,2.27.37,0,.69-.05,1.06-.11h.11ZM24.87,81h22.23c0,.11,0,.21-.05.26-.05.53-.16,1.21-.16,1.9,0,5.54,1.74,9.08,10.83,12.2v29.99c-3.38-1.69-7.29-2.96-11.04-4.22-4.33-1.43-8.82-2.9-12.57-5.02-9.08-5.12-13.68-15.37-14.05-31.37,3.64-.26,4.65-2.17,4.81-3.75ZM19.49,138.88c-2.43,0-4.91-.95-4.91-2.53,0-.84.9-1.69,2.59-1.69,1.27,0,2.64.63,4.28,1.53,1.27.69,2.8,1.43,4.33,1.43-2.06.79-4.49,1.27-6.28,1.27ZM21.18,134.55c.84-1.06,2.43-1.8,3.8-1.8s2.43.79,2.43,1.9-.58,1.69-1.58,1.69c-1.43,0-3.22-1-4.65-1.8ZM58.51,128.69c6.86,0,17.53,3.75,24.61,6.92,5.81,2.64,10.24,4.49,14.42,4.49,2.96,0,4.28-.74,5.17-1.53v5.07c0,2.75-2.17,4.33-5.97,4.33s-8.29-1.85-14.68-4.7c-8.98-4.01-15.42-6.6-23.5-6.6s-14.57,2.64-23.5,6.6c-6.6,2.9-10.88,4.7-14.68,4.7s-5.97-1.58-5.97-4.33v-5.07c.84.79,2.22,1.53,5.17,1.53,4.12,0,8.55-1.85,14.42-4.49,6.97-3.17,17.69-6.92,24.5-6.92ZM91.25,137.67c1.53,0,3.12-.74,4.33-1.43,1.64-.95,3.01-1.53,4.28-1.53,1.69,0,2.59.9,2.59,1.69,0,1.58-2.48,2.53-4.91,2.53-1.8-.05-4.22-.53-6.28-1.27ZM89.61,134.66c0-1.11,1-1.9,2.43-1.9s2.96.74,3.8,1.8c-1.37.79-3.22,1.8-4.7,1.8-.95,0-1.53-.63-1.53-1.69Z"/>
          <path class="cls-1" d="M93.2,127.58c0,1.06.84,1.8,2.11,1.8,1.37,0,2.75-1,2.75-2.9,0-4.01-4.44-7.39-9.66-7.39-3.43,0-6.65,1.27-10.72,2.9-2.53,1-5.39,2.17-8.82,3.22l-.26.05.21.16c3.96,3.27,8.03,4.91,12.04,4.91s6.92-1.53,9.35-2.8c1.53-.79,2.85-1.43,3.85-1.43-.53.26-.84.84-.84,1.48ZM88.71,124.68h0c-2.64,1.11-6.76,1.64-9.45,1.64-.63,0-2.48-.05-3.91-.11,3.01-.37,5.6-1.06,7.87-1.74,3.38-.95,6.34-1.74,9.61-1.27l1.11.16-1-.42c-.95-.42-2.64-.69-4.12-.69-2.22,0-4.75.63-7.45,1.27-2.53.63-5.17,1.27-7.71,1.43,1.32-.48,2.75-1.06,4.22-1.64,3.7-1.53,7.5-3.06,10.56-3.06,3.33,0,8.29,2.01,8.29,6.23v.05c-.37-1.11-1.37-1.69-3.01-1.69-1.27,0-2.8.74-4.49,1.58-2.38,1.21-5.12,2.53-8.34,2.53-2.11,0-4.28-.48-6.55-1.48,4.33.21,9.19.05,14.36-2.8Z"/>
          <path class="cls-1" d="M64.42,87.55c-.42-.26-.95-.58-1.37-.48.11-.48-.16-.95-.37-1.43-.21-.37-.37-.74-.37-1.06v-.32l-.21.21c-1.16,1.16-1.16,2.32,0,3.59h0c.63.69,1.27,1.06,1.85,1.06h0c.58,0,1.11-.32,1.58-.9l.21-.21h-.32c-.32-.05-.63-.26-1-.48Z"/>
          <path class="cls-1" d="M97.85,100.97l-.16-.11-.05.16c-.42,1.27-.74,2.64-1.06,3.96-1.16,4.7-2.27,9.14-7.08,10.4l-.16.05.05.16c.9,2.11,3.49,3.06,5.49,3.06,2.22,0,4.44-1.11,5.39-2.75.21,1,.63,2.01,1,2.96.42,1.06.79,2.01.79,2.69,0,.32,0,.53-.11.74-.26-.58-.84-1.06-1.8-1.06s-2.06.84-2.06,2.06c0,1.69,1.37,2.85,3.38,2.85,3.43,0,6.92-2.9,6.92-9.4.11-5.81-3.12-10.56-10.56-15.79ZM100.33,109.1v.32c.05,2.96-.58,5.12-1.9,6.44-.9.9-2.11,1.37-3.54,1.37s-2.69-.63-3.33-1.16c3.12-1.32,5.12-4.59,6.34-10.67.69,3.75-.95,8.5-2.96,10.24l-.53.48.63-.21c3.01-1,4.59-6.18,4.38-10.61,2.96,4.22,4.7,10.03,5.33,14.1l.16,1.16.11-1.16c.37-4.54-1.06-9.45-4.12-14.31,3.8,3.01,6.13,7.39,6.13,11.67,0,3.59-1.32,6.44-3.54,7.6-.9.48-1.9.63-2.75.37.53,0,1-.16,1.37-.48.74-.53,1.16-1.53,1.16-2.64s-.42-2.06-.9-3.33c-.74-1.9-2.01-3.96-2.11-8.34l.05-.84h0Z"/>
          <path class="cls-1" d="M32.37,97c0-2.11.79-2.96,2.8-3.01v.9c0,2.01,0,3.75-.26,5.6-.32,2.17-1.21,2.8-2.53,3.8l-.21.16,1.74,1.9.11-.11c1.95-1.69,2.85-3.22,3.17-5.44.26-2.01.26-3.8.26-5.86v-.95h3.91c-.26,4.59-.26,5.44-.26,7.87,0,2.69,1.21,4.07,3.54,4.07,1.11,0,1.8-.32,2.17-.58l.05-.05v-2.11l-.21.11c-.48.21-.79.32-1.43.32-.84,0-1.85-.26-1.85-2.32v-.95c0-1.32,0-2.38.21-6.39h3.06v-2.17h-11.14c-3.49,0-5.12,1.37-5.49,4.59v.11l2.38.63v-.11Z"/>
          <path class="cls-1" d="M66.06,85.81c-.48-.16-.95-.37-1.43-.21.16-.48,0-.9-.16-1.37-.05-.16-.11-.32-.16-.48l1.43-3.96h-.48l-1.85,4.01c-.69,1-.53,2.01.32,2.64h0l.05.05c.05,0,.05.05.11.05h0c.63.42,1.21.63,1.69.63.69,0,1.21-.37,1.74-.9l.21-.21h-.37c-.42,0-.74-.16-1.11-.26Z"/>
          <path class="cls-1" d="M66.75,81.9c-.63.37-1.9,1.27-1.9,2.27,0,.48.32.95.79,1.11.11.05.26.05.37.05.26,0,.53-.11.79-.26.48-.37.79-1,.79-1.69,0-.26,0-.58-.05-1.43-.05-.79-.16-2.11-.26-4.44v-.11h-.48v4.49h-.05Z"/>
          <path class="cls-1" d="M108.73,91.3c-1.21-1.16-2.48-2.01-3.59-2.75-1.64-1.06-3.01-2.01-3.85-3.49l-.16-.21-.11.26c-.84,1.85-1.37,5.28-1.37,7.55,0,5.49,2.22,8.45,4.54,10.98l.32.37c1.64,1.9,3.54,4.07,4.81,7.82l.05.16.16-.05c2.38-1.27,4.01-4.91,4.01-8.87,0-4.75-1.64-8.77-4.81-11.78ZM107.94,103.08c-.21-.48-.48-.95-.69-1.37-1.9-3.75-3.7-7.29-4.65-11.56,4.01,4.44,6.55,9.24,7.66,15.74h0c-.16-8.03-3.22-12.83-6.39-16.48,5.33,3.12,8.29,7.92,8.29,13.62,0,3.8-1.48,6.02-2.17,6.81-1.21-2.48-2.96-5.02-4.81-7.02l-.16-.21c-2.01-2.53-3.91-4.91-3.91-9.93,0-.69,0-1.11.05-1.95,1.16,4.65,3.49,9.08,6.5,12.52l.69.79-.42-.95Z"/>
          <path class="cls-1" d="M14.26,84.81c1.85-1.95,2.8-4.7,2.8-8.03,0-1.64-.16-3.01-.42-4.22l-.11-.42-.16.37c-1.69,3.59-4.91,5.91-8.29,5.91-.53,0-1.74-.11-2.38-.79.16.05.32.05.53.05,1.06,0,1.9-.9,1.9-2.06,0-1.48-1.11-2.43-2.8-2.53-1.21-.05-2.32.37-3.27,1.27-1.27,1.21-2.06,3.17-2.06,5.23,0,4.59,3.33,7.87,7.87,7.87,2.48.05,4.75-.9,6.39-2.64ZM3.85,76.25c0,2.06,1.74,3.49,4.22,3.49,3.06,0,5.07-1.32,6.76-2.8-1.21,3.12-4.07,5.39-6.81,5.39-2.22,0-3.64-.79-4.7-2.64l-.63-1.11.37,1.21c.74,2.43,2.64,3.91,4.96,3.91,3.17,0,5.97-1.85,7.71-5.17-.79,4.75-3.7,7.6-7.76,7.6-3.7,0-6.55-2.8-6.55-6.55,0-3.01,1.74-5.39,3.96-5.39h.16c-1,.11-1.69.95-1.69,2.06Z"/>
          <path class="cls-1" d="M18.8,123.25c0-1.21-1.06-2.06-2.06-2.06s-1.58.53-1.8,1.06c-.11-.16-.11-.37-.11-.74,0-.69.37-1.64.79-2.69.37-.9.79-1.9,1-2.96.95,1.58,3.12,2.75,5.39,2.75,2.01,0,4.59-.95,5.49-3.06l.05-.16-.16-.05c-4.81-1.27-5.91-5.7-7.08-10.4-.32-1.32-.63-2.64-1.06-3.96l-.05-.16-.16.11c-7.5,5.23-10.67,9.98-10.67,15.74,0,6.5,3.49,9.4,6.92,9.4,2.11.05,3.49-1.11,3.49-2.8ZM15.95,105.03c-3.06,4.86-4.49,9.82-4.12,14.31l.11,1.16.16-1.16c.63-4.12,2.38-9.87,5.33-14.1-.21,4.44,1.37,9.61,4.38,10.61l.63.21-.53-.48c-2.01-1.74-3.64-6.44-2.96-10.24,1.27,6.07,3.22,9.35,6.34,10.67-.63.53-1.95,1.16-3.33,1.16s-2.64-.48-3.54-1.37c-1.27-1.27-1.9-3.38-1.9-6.23v-.53h-.26v.53c-.11,4.28-1.11,6.81-1.85,8.66-.53,1.21-.9,2.22-.9,3.33s.42,2.11,1.16,2.64c.42.32.9.48,1.37.48-.84.26-1.8.11-2.75-.37-2.22-1.21-3.54-4.07-3.54-7.6.05-4.22,2.43-8.66,6.18-11.67Z"/>
          <path class="cls-1" d="M62.94,139.57c-1.58,0-2.9.42-4.49,1.32-1.37-.84-2.59-1.32-4.33-1.32-3.33,0-5.6,1.58-5.6,3.96,0,1.85,1.58,3.01,3.12,3.01,1.43,0,2.32-.69,2.32-1.8,0-.84-.53-1.37-1.37-1.37-.42,0-.84.26-1.11.63-.21.37-.26.79-.05,1.21-.9-.11-1.53-.84-1.53-1.8,0-1.58,1.53-2.64,3.96-2.64,1.53,0,2.9.48,3.59.95-1.11,1.16-2.22,2.53-2.22,4.33,0,2.22,1.64,3.54,3.27,3.54s3.27-1.32,3.27-3.54c0-1.8-1.11-3.17-2.22-4.33.74-.48,2.22-.95,3.75-.95,2.27,0,3.8,1.06,3.8,2.64,0,1-.63,1.69-1.53,1.8.16-.42.16-.84-.05-1.21-.21-.42-.63-.63-1.11-.63-.84,0-1.37.53-1.37,1.37,0,1.11.9,1.8,2.32,1.8,1.53,0,3.12-1.11,3.12-3.01-.11-2.32-2.32-3.96-5.54-3.96ZM58.46,142.63c1.27,1.16,1.9,2.27,1.9,3.49,0,1.48-.95,2.17-1.9,2.17s-1.9-.69-1.9-2.17c0-1.21.63-2.38,1.9-3.49Z"/>
          <path class="cls-1" d="M36.17,130.33c4.07,0,8.08-1.64,12.04-4.91l.21-.16-.26-.05c-3.43-1-6.28-2.17-8.82-3.22-4.07-1.64-7.29-2.9-10.72-2.9-5.23,0-9.66,3.38-9.66,7.39,0,1.9,1.37,2.9,2.75,2.9,1.27,0,2.11-.74,2.11-1.8,0-.69-.32-1.21-.84-1.48,1,0,2.32.63,3.85,1.43,2.43,1.27,5.49,2.8,9.35,2.8ZM35.64,123.57c-2.69-.63-5.23-1.27-7.45-1.27-1.53,0-3.17.26-4.12.69l-1,.42,1.11-.16c3.27-.53,6.18.32,9.61,1.27,2.32.63,4.91,1.37,7.87,1.74-1.43.05-3.27.11-3.91.11-2.69,0-6.92-.26-9.61-1.37h0c5.23,2.85,10.14,2.75,14.52,2.64-2.27,1-4.38,1.48-6.55,1.48-3.22,0-5.97-1.37-8.34-2.53-1.74-.84-3.22-1.58-4.49-1.58-1.64,0-2.64.58-3.01,1.69v-.05c0-4.28,4.96-6.23,8.29-6.23,3.06,0,6.86,1.58,10.56,3.06,1.48.63,2.9,1.21,4.22,1.64-2.53-.26-5.12-.9-7.71-1.53Z"/>
          <path class="cls-1" d="M12.78,103.61c2.27-2.53,4.54-5.49,4.54-10.98,0-2.27-.53-5.7-1.37-7.55l-.11-.26-.16.21c-.84,1.48-2.27,2.43-3.85,3.49-1.11.74-2.38,1.58-3.59,2.75-3.12,2.96-4.81,7.02-4.81,11.67,0,3.96,1.64,7.66,4.01,8.87l.16.05.05-.16c1.27-3.75,3.12-5.86,4.81-7.76l.32-.32ZM9.24,103.24c3.01-3.43,5.33-7.87,6.5-12.52.05.9.05,1.27.05,1.95,0,5.02-1.9,7.39-3.91,9.93l-.16.16c-1.9,2.06-3.64,4.59-4.81,7.08-.63-.79-2.17-3.01-2.17-6.81,0-5.7,2.9-10.51,8.29-13.62-3.17,3.64-6.23,8.45-6.39,16.48h0c1.11-6.44,3.64-11.3,7.66-15.74-.95,4.22-2.75,7.76-4.59,11.51-.21.48-.48.95-.69,1.43l-.48.95.69-.79Z"/>
          <path class="cls-1" d="M9.82,76.09l.32-.16c5.02-2.59,8.5-8.55,8.5-14.52,0-4.17-1.58-6.81-2.9-8.98-.84-1.43-1.58-2.69-1.58-3.96,0-.26,0-.53.11-.74l.16-.37-.37.16c-4.01,1.95-6.44,6.39-6.44,11.62,0,2.53.69,5.02,1.37,7.45.69,2.43,1.32,4.7,1.32,7.08,0,.69-.16,1.48-.42,2.11l-.05.32ZM10.77,57.4c0,2.9.84,7.5,2.17,11.99h0c-.69-5.23-.79-8.92-.79-11.99,0-1.27.11-3.96.53-5.81.48,1.95.84,4.59,1.21,8.34h0c.21,1.85.42,4.01.53,6.18l.05,1.06.21-1c.26-1.43.48-4.33.42-6.23-.05-1.95-.63-5.76-1.16-8.03,2.17,3.7,3.33,6.39,3.33,9.45,0,4.75-1.85,8.77-5.54,12.09,0-2.48-.69-4.91-1.37-7.23-.69-2.27-1.37-4.65-1.37-7.08,0-3.12.79-5.81,2.27-7.92-.26,1.58-.48,4.28-.48,6.18Z"/>
          <path class="cls-1" d="M23.71,30.36c0,2.8,1.16,6.5,3.8,8.55h.11c3.54.53,6.28,2.8,6.55,4.49l.05.26.21-.16c.95-.79,1.95-2.48,1.95-4.17,0-1.95-1.21-3.59-3.17-4.17,4.7-5.49,5.07-12.57,5.07-14.63,0-8.29-4.33-11.99-8.55-11.99-3.38,0-5.86,2.22-5.86,5.23,0,2.27,1.74,4.01,4.07,4.01.79,0,1.43-.11,1.95-.32-.69,1.43-1.58,2.69-2.48,3.96-1.85,2.53-3.7,5.12-3.7,8.92ZM31.53,35.8c2.32.53,3.59,1.74,3.59,3.54,0,.84-.21,1.64-.58,2.17-.95-1.43-2.17-2.53-4.81-3.22,1.32-.42,2.75-.16,3.85.69l.42.37-.21-.53c-.74-1.58-2.43-2.32-4.54-2.01,5.49-10.09,7.18-17.58,5.12-22.23l-.42-1,.16,1.06c.69,3.96.58,9.98-6.02,21.12-.26-5.23,1.06-7.97,2.32-10.67.84-1.8,1.74-3.59,2.11-6.13h0c-.63,2.11-1.85,3.64-2.8,5.23-1.69,2.8-3.43,5.76-3.17,11.62-1.06-1.58-1.53-3.8-1.53-5.44,0-3.38,1.85-6.07,3.64-8.66,1.53-2.27,3.01-4.38,3.01-6.71,0-1.27-.79-2.17-1.9-2.17s-1.8.9-1.8,1.8c0,.53.21.95.53,1.27.26.21.69.48,1.32.48-.48.26-1.11.37-2.01.37-1.53,0-2.69-1.27-2.69-2.9,0-2.43,1.74-4.01,4.49-4.01,3.54,0,7.34,3.38,7.34,10.72,0,3.8-.95,9.51-5.54,15l-.16.16.26.11Z"/>
          <path class="cls-1" d="M5.65,50.06c2.85,0,5.17-1.69,7.5-3.33,2.01-1.43,3.96-2.8,5.97-2.8h.05l.05-.05c2.11-2.43,3.59-6.39,3.59-9.87,0-6.71-4.01-10.83-7.87-10.88h-.16l.05.16c.21.79.32,1.58.32,2.27,0,1.43-.42,2.43-.84,3.49-.48,1.21-1.06,2.53-1.11,4.65-1.32-.95-3.22-1.58-4.91-1.58s-2.64.26-2.9.42l-.05.05v.05c-.53,3.27,1.16,6.76,4.17,8.5-.9.37-1.58,1-2.17,1.58-.21-1.11-1.16-1.8-2.53-1.8-2.06,0-4.22,1.69-4.22,4.49-.11,2.69,2.11,4.65,5.07,4.65ZM4.44,42.3c-.26.26-.48.58-.48,1,0,.95.69,1.64,1.64,1.64s1.48-.53,2.11-1.16c.84-.84,1.85-1.85,4.33-2.22l.48-.05-.48-.21c-4.33-1.8-5.76-5.17-5.65-7.71.53-.11,1-.16,1.64-.16,2.53,0,4.65,1.21,6.39,3.59l.53.74-.26-.84c-.21-.69-.32-1.53-.32-2.8,0-2.17.58-3.59,1.11-4.86.42-1.06.79-2.01.79-3.22,0-.53-.05-1-.16-1.37.11.05.26.11.37.11.05,0,.11.05.11.05,3.06,1.27,4.81,4.65,4.81,9.35,0,2.43-.84,5.23-1.74,6.81.74-6.39.16-10.77-1.74-13.68l-.48-.74.21.84c1.21,4.44,1.43,8.82.69,13.36-.74-2.64-1.43-5.76-1.85-8.71l-.16-1.16-.11,1.16c-.32,3.38.42,7.13.9,9.08-2.22-2.53-5.54-5.44-8.55-6.28l-.95-.26.84.53c3.12,1.95,6.02,4.44,7.66,6.71-1.58-.84-3.12-1.8-4.59-2.75-.53-.32-1.11-.69-1.64-1l-.74-.42.53.63c1.16,1.43,3.54,3.22,5.81,4.49-1.16,0-3.33.16-4.81,1.11-.48.32-.95.63-1.43.9-2.38,1.58-3.91,2.59-5.49,1.43l-.95-.69.74.9c1.85,2.27,4.38.63,7.29-1.21l.32-.21c1.58-1,3.38-1.11,4.44-1.11-1.11.58-2.22,1.32-3.33,2.06-2.17,1.48-4.44,3.06-6.76,3.06s-3.8-1.43-3.8-3.38c0-1.64,1.06-3.33,2.85-3.33.05-.11-.05-.11-.11,0Z"/>
          <path class="cls-1" d="M75.41,58.09c1,0,1.69-.37,2.53-1.11,1.06-.95,2.01-1.48,3.85-1.48,2.32,0,4.59,1.27,4.59,4.07s-1.95,4.54-6.71,5.6l-1.32.32v1.9l1.8-.32c3.64-.9,8.55-2.69,8.55-7.6,0-3.59-2.85-6.13-6.92-6.13-3.85,0-7.5,2.8-7.5,4.07,0,.42.48.69,1.11.69ZM75.94,56.34c0-.21.16-.32.32-.32.21,0,.32.16.32.32,0,.21-.16.32-.32.32-.16,0-.32-.11-.32-.32Z"/>
          <path class="cls-1" d="M77.57,70.07l-1.37-.26c-1.64-.32-1.95-.53-1.95-.79s.16-.48,1-.69h.11v-1.85l-.16.05c-2.17.58-3.12,1.37-3.12,2.59s1.27,1.9,4.07,2.38l1.37.26c3.59.74,4.17,1.9,4.49,2.48.16.26.26.53.58.53s.42-.63.42-.95c0-.16-.05-.53-.21-.84-.32-.58-1.27-2.11-5.23-2.9Z"/>
          <path class="cls-1" d="M77.73,72.82v-.53l-1.64-.32v.9c-1.85.42-3.01.79-3.01,1.58v.16h7.76v-.16c0-.79-1.21-1.21-3.12-1.64Z"/>
          <path class="cls-1" d="M32.16,70.34c3.91,0,5.28-1.48,5.28-2.75v-.16h-1l-3.49-10.77c1.37-.26,2.59-.42,3.64-.42.21.58.9,1.16,1.74,1.16s1.53-.58,1.74-1.16c1.48,0,2.85.26,3.64.42l-3.49,10.77h-1v.16c0,1.27,1.37,2.75,5.28,2.75,3.7,0,5.02-1.43,5.02-2.75v-.16h-.84l-3.17-10.24.48.16.58-1.69-.16-.05c-2.22-.69-4.33-1.11-6.55-1.21-.26-.63-.9-1.11-1.69-1.11-.74,0-1.43.42-1.74,1.11-2.22.16-4.22.53-6.5,1.21l-.16.05.58,1.69.48-.16-3.17,10.24h-.84v.16c.26,1.37,1.58,2.75,5.33,2.75ZM29.15,67.49l2.48-8.61v8.61h-2.48ZM32.69,67.49v-8.61l2.53,8.61h-2.53ZM41.56,67.49l2.53-8.61v8.61h-2.53ZM45.2,67.49v-8.61l2.53,8.61h-2.53Z"/>
          <path class="cls-1" d="M76.09,69.23l1.64.32v-5.33c3.33-.74,6.55-1.64,6.55-4.33v-.16h-14.68v.16c0,2.64,3.22,3.59,6.55,4.33v5.02h-.05Z"/>
          <path class="cls-1" d="M79.68,40.08c-1.21.95-2.43,1.21-4.75,1.21-3.85,0-8.18-2.32-10.09-2.32-1.64,0-2.32.95-2.59,3.27,2.06,0,8.03,3.01,12.25,3.01,3.12,0,4.91-1.11,5.17-5.17ZM65.22,41.98c-.63-.16-.9-.63-.9-1.21,0-.74.42-1.16.95-1.11.74.16.95.74.95,1.43,0,.69-.48,1.06-1,.9ZM67.59,42.72l-.32-1v.9l-.69-.21v-2.32l.69.21c.69.21.95.48.95.9,0,.26-.16.48-.42.53l.53,1.27-.74-.26ZM69.23,43.3l-.69-.21v-2.38l.74.26c.79.26,1.11.79,1.11,1.48-.05.74-.63.95-1.16.84ZM71.97,43.99l-1.37-.32v-2.22l1.32.32v.42l-.63-.21v.63l.53.05v.42l-.53-.16v.53l.69.16v.37ZM74.19,44.3l-.79-.05-.63-1.74.05,1.69-.42-.05v-2.22l.9.16.53,1.69-.05-1.64h.42v2.17Z"/>
          <path class="cls-1" d="M43.78,43.62c0-.26-.16-.42-.32-.42v.79c.16.05.32-.11.32-.37Z"/>
          <path class="cls-1" d="M69.23,41.29v1.64c.26.05.48-.05.48-.63,0-.74-.21-.9-.48-1Z"/>
          <polygon class="cls-1" points="50.22 40.56 50.11 41.77 50.43 41.66 50.22 40.56"/>
          <path class="cls-1" d="M42.56,45.25c4.22,0,10.19-3.12,12.25-3.12-.26-2.32-.95-3.27-2.59-3.27-1.95,0-6.23,2.43-10.09,2.43-1.69,0-3.54-.26-4.75-1.21.26,4.07,2.06,5.17,5.17,5.17ZM50.69,40.03l.53,2.11v-2.22l.69-.16c.69-.16,1.11.16,1.11.79,0,.74-.32,1.11-1.11,1.37l-.69.21-.69.21-.05-.32-.48.21-.05.42-.53.21.48-2.53.79-.32ZM48,40.92l1.58-.48v.48l-.42.05v1.9l-.69.21v-1.9l-.48.21v-.48ZM46.36,41.4l.74-.21c.53-.16.9.21.9.63,0,.21-.16.48-.32.53l.53.79-.74.21-.42-.74v.9l-.69.21v-2.32h0ZM44.73,41.77l1.27-.26v.42l-.63.05v.53l.63-.16v.42l-.63.05v.63l.69-.16v.42l-1.37.26v-2.22h.05ZM42.77,42.03l.74-.05c.53-.05.9.05.9.48,0,.26-.21.53-.48.53.26,0,.53.05.53.48s-.26.69-.79.74l-.9.05v-2.22ZM41.66,42.03h.69v2.17h-.69v-2.17ZM40.19,41.93l.69.05v1.85h.53v.42c-.42,0-.95-.16-1.21-.26v-2.06Z"/>
          <path class="cls-1" d="M67.22,40.61v.9c.21.05.32-.05.32-.32.05-.26-.05-.48-.32-.58Z"/>
          <path class="cls-1" d="M47.31,41.88c0-.21-.05-.42-.26-.32v.79c.21-.11.26-.21.26-.48Z"/>
          <path class="cls-1" d="M43.78,42.61c0-.21-.16-.32-.32-.32v.69c.16-.05.32-.16.32-.37Z"/>
          <path class="cls-1" d="M65.27,39.97c-.26-.05-.26.32-.26.9,0,.42,0,.79.26.9.26.05.26-.32.26-.79s0-.95-.26-1Z"/>
          <path class="cls-1" d="M55.6,39.13c0,.79.42,2.06.69,2.85.69-.16,1.64-.26,2.17-.26.69,0,1.64.16,2.32.26.26-.79.69-2.06.69-2.85,0-1.11-.79-1.48-3.01-1.48-2.06,0-2.85.37-2.85,1.48ZM58.98,38.6h.42l-.53,1.43v.74h-.69v-.74l-.53-1.43h.69l.32,1,.32-1Z"/>
          <path class="cls-1" d="M52.33,40.71c0-.69-.16-.69-.42-.69v1.58c.32-.16.42-.32.42-.9Z"/>
          <path class="cls-1" d="M41.51,137.72c0,.42-.48.53-1,.42l.16.74c.79.26,1.74-.26,1.74-1.21,0-1.21-1.27-1.43-1.27-2.11,0-.53.48-.63,1-.48l-.16-.74c-.95-.16-1.69.42-1.69,1.21,0,1.21,1.21,1.37,1.21,2.17Z"/>
          <path class="cls-1" d="M46.84,136.08l.74-.21.16.79.69-.21-.69-4.17-1.16.32-.74,4.54.9-.26.11-.79ZM47.05,134.07l.05-.9.16-.05.05.9.16,1.21-.53.16.11-1.32Z"/>
          <path class="cls-1" d="M44.04,136.19c.32,0,.53-.21.53-.53s-.21-.53-.53-.53-.53.21-.53.53.21.53.53.53Z"/>
          <path class="cls-1" d="M24.45,144.85c-.26.16-.74.26-.95.32v-1.43l.79-.16v-.69l-.79.26v-1.21l.95-.16v-.69c-.53.16-1.11.26-1.74.42v4.33c.48-.05,1.27-.26,1.74-.42v-.58Z"/>
          <path class="cls-1" d="M38.55,139.09l.9-.32.16.79.69-.26-.95-4.07-1.11.42-.53,4.75.79-.32.05-1ZM38.76,137.14v-1l.16-.05.16,1,.26,1-.69.26.11-1.21Z"/>
          <polygon class="cls-1" points="19.22 143.16 19.49 144.79 19.38 144.79 19.12 143.58 18.53 141.94 17.85 141.89 17.85 145.85 18.53 145.96 18.53 144.69 18.27 143.05 18.43 143.05 18.69 144.27 19.22 146.11 19.91 146.17 19.91 141.94 19.22 141.94 19.22 143.16"/>
          <path class="cls-1" d="M25.56,143.42l.26-.05.16.53.63.95.79-.26-1.16-1.48c.42-.26.69-.74.69-1.27,0-.69-.53-1.16-1.48-.9l-.53.16v4.33l.69-.21v-1.8h-.05ZM25.56,141.47c.42-.16.69.16.69.53,0,.26-.16.69-.69.79v-1.32Z"/>
          <path class="cls-1" d="M50.69,135.98v-.63c-.69.26-1.27-.16-1.27-1.37,0-1.11.32-1.64,1.16-1.64v-.69c-1.11-.16-1.9.79-1.9,2.32,0,2.06,1.06,2.43,2.01,2.01Z"/>
          <path class="cls-1" d="M28.57,142.58c.32,0,.53-.21.53-.53s-.21-.53-.53-.53-.53.21-.53.53c-.05.32.16.53.53.53Z"/>
          <polygon class="cls-1" points="37.39 139.78 36.59 140.2 36.59 136.29 35.91 136.56 35.91 141.15 37.39 140.52 37.39 139.78"/>
          <path class="cls-1" d="M33.69,142.1c.69,0,1.48-.69,1.48-2.06v-3.22l-.79.32v3.27c0,.53-.26.79-.53.79-.16,0-.26-.16-.26-.42v-3.17l-.69.26v3.27c0,.53.26.95.79.95Z"/>
          <path class="cls-1" d="M31,142.21l.79-.32.16.95.69-.26-.69-4.22-1.21.53-.69,4.7.79-.32.16-1.06ZM31.26,139.3l.16-.05.16,1,.16.95-.69.26.21-2.17Z"/>
          <path class="cls-1" d="M20.86,146.17l.79-.05v-3.59c.16,0,.74-.05.74-.05v-.74c-.63.16-1.74.26-2.27.26v.69l.69-.05v3.54h.05Z"/>
          <path class="cls-1" d="M86.13,141.41c.32,0,.53-.21.53-.53s-.21-.53-.53-.53-.53.21-.53.53.21.53.53.53Z"/>
          <polygon class="cls-1" points="84.6 141.84 83.49 141.47 83.49 140.09 84.44 140.46 84.44 139.78 83.49 139.41 83.49 138.3 84.6 138.77 84.6 138.09 82.8 137.24 82.8 141.89 84.6 142.58 84.6 141.84"/>
          <polygon class="cls-1" points="89.35 144.53 90.03 140.41 89.35 140.09 88.93 142.58 88.87 143.74 88.66 143.63 88.66 142.47 88.29 139.72 87.55 139.36 88.13 144.05 89.35 144.53"/>
          <path class="cls-1" d="M80.9,139.36h.26l.05.42.53,1.64.95.42-1-2.64c.42-.21.53-.79.53-1.11,0-.69-.26-1.21-1.37-1.64l-.69-.26v4.65l.69.26v-1.74h.05ZM80.9,137.19c.42.16.69.32.69.9,0,.53-.42.74-.69.63v-1.53Z"/>
          <polygon class="cls-1" points="92.04 144.69 90.98 144.37 90.98 143.1 91.78 143.37 91.78 142.68 90.98 142.47 90.98 141.36 92.04 141.73 92.04 141.05 90.3 140.46 90.3 144.79 92.04 145.43 92.04 144.69"/>
          <path class="cls-1" d="M96.16,146.38c.69,0,1.16-.53,1.16-1.48v-2.9h-.74v3.06c0,.42-.26.53-.42.53-.26,0-.42-.21-.42-.69v-3.01l-.79-.16v3.12c-.05,1.11.53,1.53,1.21,1.53Z"/>
          <polygon class="cls-1" points="98.54 144.58 98.32 142.95 98.43 142.95 99.01 145.27 99.54 145.16 100.01 142.68 100.17 142.63 99.96 144.21 99.96 145.53 100.65 145.22 100.65 141.52 99.8 141.68 99.38 143.42 99.33 144.37 99.17 144.37 99.12 143.53 98.59 141.89 97.85 141.94 97.85 146.11 98.54 146.01 98.54 144.58"/>
          <path class="cls-1" d="M76.83,139.36l.26-.95.79.32v1l1.9.79v-.79l-1.11-.42v-1.21l.79.32v-.69l-.79-.32v-1.11l1.11.48v-.74l-2.38-.95-1.21,4.01.63.26ZM77.57,136.71l.21-.9.16.05v2.17l-.63-.26.26-1.06Z"/>
          <path class="cls-1" d="M93.15,144.27h.26l.05.32.48,1.27.79.21-.79-2.06c.26-.16.53-.63.53-1.11,0-.79-.42-1.43-1.21-1.64l-.79-.21v4.44l.69.16v-1.37ZM93.15,142.1c.42,0,.69.32.69.74,0,.53-.26.79-.69.79v-1.53Z"/>
          <path class="cls-1" d="M16.53,145.27c.21.16.42.21.79.32v-3.85l-.79-.21v3.75Z"/>
          <polygon class="cls-1" points="58.46 134.34 57.51 134.39 57.51 133.02 58.35 133.02 58.35 132.38 57.51 132.44 57.51 131.28 58.46 131.22 58.46 130.54 56.82 130.59 56.82 135.08 58.46 135.03 58.46 134.34"/>
          <polygon class="cls-1" points="59.83 133.6 59.67 131.7 59.83 131.7 60.09 133.02 60.36 134.13 60.94 134.13 61.2 133.02 61.47 131.8 61.57 131.8 61.47 133.7 61.47 135.13 62.15 135.24 62.15 130.8 61.31 130.75 60.78 132.38 60.62 133.44 60.57 133.44 60.52 132.38 59.93 130.59 59.14 130.54 59.14 135.03 59.83 135.03 59.83 133.6"/>
          <path class="cls-1" d="M51.86,134.76l.74-.21.16.95.79-.16-.79-4.22-1.21.26-.53,4.49.74-.21.11-.9ZM52.07,131.8h.16l.26,2.06-.53.16.11-2.22Z"/>
          <path class="cls-1" d="M56.29,132.91c0-1.64-.74-2.17-1.85-2.06l-.48.05v4.33l.53-.05c.95-.11,1.8-.63,1.8-2.27ZM54.65,131.54c.53-.16.95.42.95,1.48,0,.79-.42,1.48-.95,1.48v-2.96Z"/>
          <polygon class="cls-1" points="63.37 131.01 62.68 130.85 62.68 135.29 63.37 135.34 63.37 131.01"/>
          <path class="cls-1" d="M75.04,138.77c.63.21,1.21-.26,1.21-.95v-3.22l-.69-.21v3.27c0,.26-.16.48-.42.42-.32-.05-.53-.42-.53-.95v-3.06l-.69-.26v3.22c.05,1.06.42,1.53,1.11,1.74Z"/>
          <path class="cls-1" d="M72.19,137.67h.16l1.21.42v-.79l-.53-.16-.42.16c.53-.26.69-.79.69-1.64,0-1.64-.42-2.59-1.37-2.59-.79,0-1.21.95-1.21,2.17,0,1.48.42,2.43,1.48,2.43ZM71.97,133.81c.48,0,.63.74.63,1.58,0,.95-.16,1.64-.53,1.64-.53,0-.69-.79-.69-1.64,0-1,.11-1.58.58-1.58Z"/>
          <path class="cls-1" d="M68.81,134.92c.32,0,.53-.21.53-.53s-.21-.53-.53-.53-.53.21-.53.53c0,.37.16.53.53.53Z"/>
          <path class="cls-1" d="M64.63,134.66l.74.16v.9l1.74.42v-.69l-1.11-.21v-1.32l.95.21v-.69l-.95-.16v-1.11l1.11.26v-.63c-.53-.16-1.64-.42-2.17-.48l-1.37,4.07.74.16.32-.9ZM65.22,132.86l.21-.79h.05l-.05.79v1.27l-.63-.05.42-1.21Z"/>
        </g>
        <path class="cls-1" d="M41.03,32.85c0,1.21-.95,2.17-2.43,2.17-1.21,0-2.06-.79-2.17-2.17.69.53,2.17.16,2.43,1.21.16-1.11,1.48-1.11,2.06-1.9.11.32.11.42.11.69Z"/>
        <path class="cls-1" d="M41.88,35.06c0,1.48-1.37,2.32-3.12,2.32-1.37,0-2.17-.53-2.32-2.17.79.79,2.75.26,3.01,1.48,0-1.37,1.9-1.48,2.32-2.32.11.11.11.37.11.69Z"/>
        <path class="cls-1" d="M38.6,32.74c-1.11,0-1.9-.79-1.9-1.64,0-.26,0-.42.16-.69.53.69,1.74.42,1.9,1.74-.16-1.37,1.48-1.64,1.74-1.9.05,1.37-.69,2.48-1.9,2.48Z"/>
        <path class="cls-1" d="M43.09,37.23c0,1.74-1.9,2.85-3.54,2.85-1.21,0-2.06-.69-2.32-1.9.21.21.69.16,2.06.16.53,0,1.21,0,1.48.69v-.53c0-1.37,1.9-1.74,2.06-2.59.11.48.26.9.26,1.32Z"/>
        <path class="cls-1" d="M38.6,30.57c-.42-.16-.95-.69-.95-1.48s.53-1.74,1.21-2.43c0,1.11.53,1.74.53,2.59,0,.63-.53,1.16-.79,1.32Z"/>
        <path class="cls-1" d="M68.65,4.17c3.38,0,7.6,3.27,8.18,12.25-1.21,0-1.64-.95-1.74-2.43-.79-5.7-3.8-8.45-5.97-8.45-4.22,0-.79,6.65-5.17,7.6,0,1.11-.26,2.43-.79,2.43-.69,0-.95-1.21-1.21-2.17,0,1.48-.42,2.75-.95,2.75-.42,0-.79-1.21-1.11-2.32,0,1.37-.69,2.75-1.37,2.75-.53,0-1.21-1.37-1.21-2.75-.26,1.11-.69,2.32-1.11,2.32-.53,0-.95-1.21-.95-2.75-.26.95-.53,2.17-1.21,2.17-.53,0-.79-1.37-.79-2.43-4.33-.95-.95-7.6-5.17-7.6-2.17,0-5.17,2.75-5.97,8.45-.16,1.48-.53,2.43-1.74,2.43.53-8.98,4.75-12.25,8.18-12.25,5.02,0,2.43,6.23,4.75,6.23.95,0,1.74-1.11,2.59-2.43-.16.26-.16.53-.16.79,0,1.11,1.11,1.74,2.85,1.74,1.9,0,3.01-.69,3.01-1.74,0-.26,0-.53-.16-.79.79,1.37,1.48,2.43,2.59,2.43,2.06,0-.37-6.23,4.65-6.23Z"/>
        <path class="cls-1" d="M41.45,29.47c.69-.26,1.21-.95,1.21-2.85.79,3.7,1.64,6.13,2.59,8.45.69,1.74,1.37,2.85,1.37,3.38,0,.42-.16.53-.42.69-2.01-2.48-3.64-6.13-4.75-9.66Z"/>
        <path class="cls-1" d="M44.99,13.68c-.21,1.64-.95,2.32-2.06,2.32.16-2.43.79-4.75,1.48-6.23.95-2.06,2.59-3.27,3.38-3.27.26,0,.53.16.53.42s-.42.42-.95.95c-1,1.06-2.01,3.12-2.38,5.81Z"/>
        <path class="cls-1" d="M42.93,17.11c.69,0,1.37-.42,1.74-2.06-.16,1.11-.16,2.06-.16,3.01v2.75c0,.95-.16,2.17-1.37,2.32-.21-2.22-.21-4.28-.21-6.02Z"/>
        <path class="cls-1" d="M43.35,24.13c.79,0,1.48-.69,1.48-2.32.69,6.13,2.32,9.51,3.12,11.83.42,1.21.69,2.17.69,2.85,0,.42-.16.69-.53.79-2.01-3.17-4.07-8.24-4.75-13.15Z"/>
        <path class="cls-1" d="M45.68,16.95c.69,0,1.37-.42,1.74-2.17-.16,1.21-.26,2.17-.26,2.85,0,.95.16,2.17.16,2.85,0,1.11-.16,2.17-1.37,2.43-.26-1.48-.42-2.85-.42-4.22,0-.63,0-1.21.16-1.74Z"/>
        <path class="cls-1" d="M47.58,13.68c-.26,1.64-.69,2.17-1.74,2.17.26-3.54.95-5.44,2.17-7.18.26-.42.69-.79,1.11-.79.16,0,.42.16.42.42s-.16.42-.26.69c-1,1.16-1.43,3.22-1.69,4.7Z"/>
        <path class="cls-1" d="M45.94,23.87c.79-.16,1.37-.79,1.48-2.43.42,3.96,1.74,7.87,2.75,10.46.42,1.11.53,1.9.53,2.59,0,.42-.16.69-.42.95-2.01-2.85-3.8-8.29-4.33-11.56Z"/>
        <path class="cls-1" d="M48.26,15.84c.79,0,1.48-.69,1.74-1.9-.16,1.11-.16,1.9-.16,2.75,0,1.21.16,2.32.16,3.01,0,1.21-.79,2.06-1.64,2.06-.16-1.37-.16-2.43-.16-3.54v-2.38h.05Z"/>
        <path class="cls-1" d="M49.48,10.83c.26,0,.53.42.53,1.37,0,1.21-.42,2.59-1.64,2.59.42-3.43.69-3.96,1.11-3.96Z"/>
        <path class="cls-1" d="M48.53,22.92c.69-.16,1.48-.53,1.64-2.17.26,3.96,1.37,7.34,2.06,9.77.42,1.21.69,2.06.69,2.75,0,.26-.16.69-.42.79-1.9-2.85-3.43-7.87-3.96-11.14Z"/>
        <path class="cls-1" d="M52.33,15.47c0,1.74.16,3.12.16,3.96,0,1.21-.69,2.06-1.21,2.06-.26-1.74-.42-3.27-.42-4.91,0-2.06.26-2.43.69-2.43.37-.05.79.37.79,1.32Z"/>
        <path class="cls-1" d="M52.86,38.18l.16-.95.79-1.37-1.48,1.21-.42.69h-.26l.16-.95,1.11-.95-1.37.42-.26.42h-.42l.53-.79,2.75-1.11.42-3.01c.16.16.26.16.53.16.42,0,.53,0,.69-.16l-.69,3.01,1.74,1.11.26,1.11h-.26l-.69-.69-1.21-.42-1.21,1.48-.53.79h-.32Z"/>
        <path class="cls-1" d="M51.27,22.39c.53,0,1.21-.53,1.37-1.9.16,1.37.69,3.7.69,4.65s-.42,1.74-.95,1.74c-.58-1.21-.84-3.12-1.11-4.49Z"/>
        <path class="cls-1" d="M54.5,27.83c0,.53.26,1.11.79,1.11.42,0,.79-.42,1.11-.95.53.53.79,1.48.79,3.27-.69-.16-1.21-.79-1.21-1.64-.16,1.11-.53,1.64-.95,1.64-.26,0-.42-.42-.42-.95v-.95c-.16.53-.95,1.21-1.64.95.48-1.27,1-2.22,1.53-2.48Z"/>
        <path class="cls-1" d="M55.6,24.71c1.48,0,1.9.53,1.9,2.59v.79c-.69,0-1.11-.69-1.21-1.37-.16.95-.53,1.37-.79,1.37-.42,0-.53-.26-.53-.95v-.79c-.53.95-1.11.95-1.48.95.48-2.06,1-2.59,2.11-2.59Z"/>
        <path class="cls-1" d="M58.46,17.74c.79,0,1.37-.79,1.37-1.9.26,1.11.79,1.48,1.21,1.48.53,0,1.11-.95,1.11-2.06.16.95.69,1.74,1.37,1.74,0,1.48-.26,2.32-.95,2.32-.42,0-.53-.69-.79-1.74,0,1.11-.53,2.17-1.11,2.17-.42,0-.69-.42-.95-1.64-.16,1.21-.69,2.17-1.21,2.17-.42,0-1.11-.95-1.11-2.17-.26,1.21-.53,1.64-.95,1.64-.53,0-1.11-1.11-1.11-2.17-.26,1.11-.42,1.74-.79,1.74-.69,0-.95-.79-.95-2.32.53,0,1.21-.79,1.37-1.74,0,1.11.53,2.06,1.11,2.06.42,0,.95-.42,1.21-1.48-.05,1.11.48,1.9,1.16,1.9Z"/>
        <path class="cls-1" d="M58.46,21.86c.69,0,1.37-.95,1.37-2.06.26,1.11.53,1.64,1.11,1.64.53,0,.95-.95.95-2.17.79,1.21,1.11,2.43,1.11,3.27,0,.95-.26,1.21-.53,1.21-.42,0-.95-.53-1.11-1.74,0,1.48-.42,2.17-.95,2.17-.26,0-.69-.53-.95-1.48,0,1.21-.42,2.06-.95,2.06-.42,0-.79-.79-.79-2.06-.26.95-.69,1.48-.95,1.48-.53,0-.95-.69-.95-2.17-.16,1.21-.69,1.74-1.11,1.74-.26,0-.53-.26-.53-1.21,0-.79.26-2.06,1.11-3.27,0,1.21.42,2.17.95,2.17s.79-.53,1.11-1.64c-.11,1.11.58,2.06,1.11,2.06Z"/>
        <path class="cls-1" d="M55.13,43.93c0-.53.48-1,1.58-1.58-.26.53-.53.79-.95,1.21.79-.53.69-.42,1.11-.69-.53,1.21-1,1.37-1.27,1.37s-.48-.11-.48-.32Z"/>
        <path class="cls-1" d="M56.08,45.15c0-.53.42-1.21,1.37-2.17-.26.79-.42,1.11-.69,1.9.42-.69.69-.95.95-1.37-.16,1.9-.74,2.22-1.16,2.22-.26.05-.48-.16-.48-.58Z"/>
        <path class="cls-1" d="M58.46,48.11c-.53,0-.95-.26-.95-1.21,0-.69.16-1.27.53-2.53.16.53.42,1.11.42,1.9,0-.79.26-1.37.42-1.9.42,1.21.53,1.85.53,2.53,0,.95-.42,1.21-.95,1.21Z"/>
        <path class="cls-1" d="M59.88,6.02c0,.63.21,1.16.21,1.27,0,.53-.79.95-1.64.95-.53,0-1.37-.42-1.37-.79,0-.42.48-1.37.48-2.17,0-.16,0-.26-.16-.53.26.21.63.26.95.26s.79-.16.95-.42c-1.64.48-2.22-.48-2.38-1.27-.63.26-1.21.05-1.37-.42-.26.16-.63.21-.9.42-.26-1.16.16-1.43,1.58-1.64-.21-.21-.26-.48-.26-.69,0-.69.74-1,2.43-1,.74,0,1.21.26,1.11.63,0,.26-.16.26-.16.42.9.26,1.16,1,1.16,1.74.05,1.32-.63,1.58-.63,3.22ZM58.46,2.11c.26,0,.48-.16.48-.42s-.21-.42-.48-.42-.48.16-.48.42c0,.32.21.42.48.42Z"/>
        <path class="cls-1" d="M60.36,45.78c-.42,0-1-.32-1.16-2.22.26.42.53.69.95,1.37-.26-.79-.42-1.11-.69-1.9.95.95,1.37,1.64,1.37,2.17,0,.37-.21.58-.48.58Z"/>
        <path class="cls-1" d="M62.15,26.35v.79c0,.69-.16.95-.53.95-.26,0-.69-.42-.95-1.37,0,.69-.42,1.37-1.11,1.37v-.79c0-2.06.42-2.59,1.9-2.59,1.11,0,1.64.53,2.17,2.59-.42,0-.95,0-1.48-.95Z"/>
        <path class="cls-1" d="M62.42,29.31v.95c0,.53-.16.95-.42.95-.42,0-.79-.53-.95-1.64-.16.79-.69,1.48-1.21,1.64,0-1.74.16-2.75.69-3.12.26.69.79.79,1.21.79.53,0,.95-.42.95-.95.53.42.95,1.11,1.21,2.32-.53.32-1.37-.37-1.48-.95Z"/>
        <path class="cls-1" d="M63.9,38.18l-.53-.79-1.21-1.48-1.21.42-.69.69h-.26l.26-1.11,1.74-1.11-.69-3.01c.16.16.26.16.69.16.26,0,.42,0,.53-.16l.26,3.01,2.85,1.11.42.79h-.26l-.26-.42-1.37-.42,1.11.95.16.95h-.26l-.42-.69-1.48-1.21.79,1.37.16.95h-.32Z"/>
        <path class="cls-1" d="M61.36,44.3c-.26,0-.74-.16-1.27-1.37.42.26.26.16,1.11.69-.42-.42-.69-.69-.95-1.21,1.11.53,1.58,1,1.58,1.58-.05.16-.16.32-.48.32Z"/>
        <path class="cls-1" d="M65.8,22.39c-.26,1.37-.53,3.27-1.11,4.49-.53,0-.95-.79-.95-1.74s.53-3.27.69-4.65c0,1.37.84,1.9,1.37,1.9Z"/>
        <path class="cls-1" d="M68.54,22.92c-.53,3.27-2.06,8.29-3.96,11.14-.26-.16-.42-.53-.42-.79,0-.69.26-1.48.69-2.75.69-2.43,1.74-5.86,2.06-9.77.11,1.64.95,2.06,1.64,2.17Z"/>
        <path class="cls-1" d="M64.74,15.47c0-.95.42-1.37.79-1.37.42,0,.53.42.53,2.43,0,1.64,0,3.12-.26,4.91-.53,0-1.21-.79-1.21-2.06,0-.79.16-2.17.16-3.91Z"/>
        <path class="cls-1" d="M71.13,23.87c-.53,3.27-2.32,8.71-4.33,11.56-.26-.26-.42-.53-.42-.95,0-.69.16-1.48.53-2.59.95-2.59,2.32-6.55,2.75-10.46.11,1.64.63,2.32,1.48,2.43Z"/>
        <path class="cls-1" d="M67.59,10.83c.42,0,.69.53,1.11,3.96-1.21,0-1.64-1.37-1.64-2.59-.05-.95.11-1.37.53-1.37Z"/>
        <path class="cls-1" d="M68.81,15.84v2.32c0,1.11,0,2.17-.16,3.54-.79,0-1.64-.79-1.64-2.06,0-.69.16-1.74.16-3.01,0-.79,0-1.64-.16-2.75.26,1.32.95,1.95,1.8,1.95Z"/>
        <path class="cls-1" d="M69.49,13.68c-.26-1.48-.69-3.54-1.64-4.75-.16-.26-.26-.42-.26-.69s.26-.42.42-.42c.42,0,.79.42,1.11.79,1.21,1.74,1.9,3.7,2.17,7.18-1.11.05-1.53-.48-1.8-2.11Z"/>
        <path class="cls-1" d="M73.66,24.13c-.69,4.91-2.75,9.93-4.75,13.2-.42-.16-.69-.42-.69-.79,0-.69.42-1.64.79-2.85.79-2.32,2.43-5.7,3.12-11.83.05,1.64.74,2.27,1.53,2.27Z"/>
        <path class="cls-1" d="M72.08,13.68c-.32-2.75-1.37-4.75-2.43-5.86-.53-.53-.95-.69-.95-.95s.26-.42.53-.42c.79,0,2.32,1.21,3.38,3.27.69,1.48,1.37,3.8,1.48,6.23-1.06.05-1.85-.63-2.01-2.27Z"/>
        <path class="cls-1" d="M71.39,16.95c.16.53.16,1.11.16,1.74,0,1.37-.16,2.75-.42,4.22-1.21-.26-1.37-1.37-1.37-2.43,0-.69.16-1.9.16-2.85,0-.69-.16-1.64-.26-2.85.37,1.74,1.06,2.17,1.74,2.17Z"/>
        <path class="cls-1" d="M75.62,29.47c-1.11,3.54-2.75,7.18-4.75,9.66-.26-.16-.42-.26-.42-.69,0-.53.69-1.64,1.37-3.38.79-2.32,1.74-4.75,2.59-8.45-.05,1.9.37,2.59,1.21,2.85Z"/>
        <path class="cls-1" d="M74.09,17.11c0,1.74,0,3.8-.26,5.97-1.21-.16-1.37-1.37-1.37-2.32v-2.75c0-.95,0-1.9-.16-3.01.32,1.69,1.11,2.11,1.8,2.11Z"/>
        <path class="cls-1" d="M73.98,37.23c0-.42.16-.79.26-1.37.16.79,2.06,1.21,2.06,2.59v.53c.26-.69.95-.69,1.48-.69,1.37,0,1.85.05,2.06-.16-.26,1.21-1.11,1.9-2.32,1.9-1.64.05-3.54-1.06-3.54-2.8Z"/>
        <path class="cls-1" d="M76.94,17.64v1.9c0,2.59-.26,5.97-1.11,8.82-.69-.26-1.21-.95-1.21-2.43,0-.42,0-.95.16-1.37.16-.95.42-3.27.42-5.97,0-.95,0-2.06-.16-3.12.42,1.74,1.21,2.17,1.9,2.17Z"/>
        <path class="cls-1" d="M75.2,35.06c0-.26,0-.53.16-.69.42.79,2.32.95,2.32,2.32.26-1.21,2.17-.69,3.01-1.48-.16,1.64-.95,2.17-2.32,2.17-1.8-.05-3.17-.84-3.17-2.32Z"/>
        <path class="cls-1" d="M75.99,32.85c0-.26,0-.42.16-.69.53.79,1.9.79,1.9,1.9.42-1.11,1.9-.69,2.59-1.21-.16,1.37-.95,2.17-2.17,2.17-1.53.05-2.48-.9-2.48-2.17Z"/>
        <path class="cls-1" d="M78.47,32.74c-1.21,0-1.95-1.11-1.9-2.43.26.26,1.9.53,1.74,1.9.16-1.37,1.37-1.11,1.9-1.74v.69c0,.74-.69,1.58-1.74,1.58Z"/>
        <path class="cls-1" d="M78.47,30.57c-.42-.16-.79-.69-.79-1.37,0-.79.53-1.48.53-2.59.69.69,1.21,1.64,1.21,2.43,0,.84-.58,1.37-.95,1.53Z"/>
        <path class="cls-1" d="M40.08,17.69c.69,0,1.48-.42,1.9-2.17-.16,1.11-.16,2.17-.16,3.12,0,2.75.26,5.02.42,5.97.16.42.16.95.16,1.37,0,1.48-.53,2.17-1.21,2.43-.79-2.85-1.21-6.23-1.21-8.82-.05-.69-.05-1.37.11-1.9Z"/>
      </g>
    </g>
  </g>
</svg>