<?xml version="1.0" encoding="UTF-8"?>
<svg id="Capa_2" data-name="Capa 2" xmlns="http://www.w3.org/2000/svg" viewBox="0 0 81.55 80">
  <defs>
    <style>
      .cls-1 {
        fill: #de3668;
      }

      .cls-2 {
        fill: #53051b;
      }
    </style>
  </defs>
  <g id="Capa_2-2" data-name="Capa 2">
    <g>
      <path class="cls-2" d="M40.76,79.96c-7.68,0-15.36.11-23.04-.03C7.73,79.75.06,71.87.03,61.87c-.04-14.59-.04-29.17,0-43.76C.05,7.97,7.97.04,18.09.02c15.1-.03,30.21-.03,45.31,0,9.98.02,17.96,7.72,18.05,17.68.14,14.91.13,29.82,0,44.73-.09,9.56-7.88,17.31-17.45,17.49-7.74.15-15.49.03-23.23.03Z"/>
      <path class="cls-1" d="M59.65,18.27l.17,36.23c-2.48,1.21-5.29,1.86-8.04,2.13-10.48,1.02-18.48-4.93-16.57-16.1,1.39-8.11,9.37-12.26,17.11-11.5v-10.76h7.33ZM52.32,35.43c-4.59-.92-9.32,1.46-9.68,6.46-.21,3.03.66,6.41,3.64,7.76,1.8.81,4.13.7,6.03.44v-14.66Z"/>
      <path class="cls-1" d="M22.53,56.17l-.16-.85.09-33.92c.03-.07.28-.31.31-.31h6.86s.23.22.23.23v34.62s-.22.23-.23.23h-7.1Z"/>
    </g>
  </g>
</svg>