<?xml version="1.0" encoding="UTF-8"?>
<svg id="Capa_2" data-name="Capa 2" xmlns="http://www.w3.org/2000/svg" viewBox="0 0 80 80">
  <defs>
    <style>
      .cls-1 {
        fill: #f7df1e;
      }
    </style>
  </defs>
  <g id="Capa_2-2" data-name="Capa 2">
    <g>
      <rect class="cls-1" width="80" height="80" rx="7.79" ry="7.79"/>
      <path d="M53.74,62.5c1.61,2.63,3.71,4.57,7.42,4.57,3.11,0,5.1-1.56,5.1-3.71,0-2.58-2.04-3.49-5.47-4.99l-1.88-.81c-5.42-2.31-9.03-5.21-9.03-11.33,0-5.64,4.3-9.93,11.01-9.93,4.78,0,8.22,1.66,10.69,6.02l-5.85,3.76c-1.29-2.31-2.68-3.22-4.84-3.22s-3.6,1.4-3.6,3.22c0,2.26,1.4,3.17,4.62,4.57l1.88.81c6.39,2.74,9.99,5.53,9.99,11.81,0,6.77-5.32,10.48-12.46,10.48s-11.49-3.33-13.7-7.69l6.11-3.55ZM27.18,63.15c1.18,2.1,2.26,3.87,4.84,3.87s4.03-.97,4.03-4.72v-25.56h7.52v25.66c0,7.78-4.56,11.33-11.23,11.33-6.02,0-9.5-3.11-11.28-6.87l6.12-3.7Z"/>
    </g>
  </g>
</svg>