<?xml version="1.0" encoding="UTF-8"?>
<svg id="Capa_2" data-name="Capa 2" xmlns="http://www.w3.org/2000/svg" viewBox="0 0 81.55 80">
  <defs>
    <style>
      .cls-1 {
        fill: #579dd2;
      }

      .cls-2 {
        fill: #021e36;
      }
    </style>
  </defs>
  <g id="Capa_2-2" data-name="Capa 2">
    <g>
      <path class="cls-2" d="M40.76,79.96c-7.68,0-15.36.11-23.04-.03C7.73,79.75.06,71.87.03,61.87c-.04-14.59-.04-29.17,0-43.76C.05,7.97,7.97.04,18.09.02c15.1-.03,30.21-.03,45.31,0,9.98.02,17.96,7.72,18.05,17.68.14,14.91.13,29.82,0,44.73-.09,9.56-7.88,17.31-17.45,17.49-7.74.15-15.49.03-23.23.03ZM17.26,56.56c1.66,0,3.13.01,4.6,0,3.13-.03,2.85.39,2.87-2.94.01-2.74,0-5.48,0-8.09,2.91-.24,5.5-.25,8.02-.7,6.21-1.09,10.08-5.39,10.25-11.08.2-6.56-2.94-11.44-9.13-12.46-5.4-.89-10.99-.64-16.61-.91v36.17ZM64.31,36.14c0-1.65.13-3.4-.07-5.11-.07-.59-.93-1.51-1.47-1.54-3.38-.2-6.85-.67-10.13-.13-4.49.75-6.88,4.58-6.42,8.96.31,2.94,2.19,4.77,4.59,6.06,1.98,1.06,4.15,1.78,6.12,2.84.67.36,1.56,1.55,1.39,1.95-.31.71-1.29,1.45-2.08,1.57-1.37.2-2.85.12-4.22-.17-1.91-.39-3.76-1.08-5.76-1.68,0,1.92-.06,3.73.04,5.53.02.46.44,1.17.83,1.31,5.23,1.81,10.53,2.43,15.42-.79,4.73-3.11,4.56-9.75-.18-12.83-1.55-1.01-3.34-1.65-5.02-2.47-1.1-.54-2.28-.96-3.25-1.67-1.21-.87-.94-2.32.48-2.8.71-.24,1.54-.42,2.27-.32,2.4.33,4.78.81,7.47,1.28Z"/>
      <path class="cls-1" d="M17.26,56.56V20.39c5.63.26,11.21.01,16.61.91,6.19,1.02,9.32,5.91,9.13,12.46-.17,5.69-4.04,9.99-10.25,11.08-2.52.44-5.11.46-8.02.7,0,2.61,0,5.35,0,8.09-.01,3.33.27,2.91-2.87,2.94-1.47.01-2.95,0-4.6,0ZM24.85,38.61c2.75.25,5.36.24,7.85-.88,2.16-.97,2.89-2.8,2.85-5.05-.04-2.21-.99-3.9-3.04-4.74-2.44-.99-5-1.01-7.65-.56v11.23Z"/>
      <path class="cls-1" d="M64.31,36.14c-2.68-.47-5.07-.95-7.47-1.28-.73-.1-1.55.08-2.27.32-1.42.48-1.69,1.93-.48,2.8.98.7,2.16,1.13,3.25,1.67,1.68.82,3.46,1.46,5.02,2.47,4.74,3.08,4.91,9.72.18,12.83-4.88,3.21-10.18,2.6-15.42.79-.39-.14-.8-.84-.83-1.31-.1-1.8-.04-3.61-.04-5.53,2,.6,3.85,1.29,5.76,1.68,1.37.28,2.85.37,4.22.17.79-.12,1.77-.86,2.08-1.57.17-.39-.72-1.59-1.39-1.95-1.98-1.06-4.15-1.78-6.12-2.84-2.41-1.29-4.29-3.12-4.59-6.06-.46-4.39,1.94-8.22,6.42-8.96,3.28-.55,6.75-.07,10.13.13.54.03,1.4.95,1.47,1.54.2,1.71.07,3.46.07,5.11Z"/>
      <path class="cls-2" d="M24.85,38.61v-11.23c2.65-.45,5.21-.43,7.65.56,2.06.84,3,2.52,3.04,4.74.04,2.25-.69,4.07-2.85,5.05-2.48,1.12-5.09,1.14-7.85.88Z"/>
    </g>
  </g>
</svg>