<?xml version="1.0" encoding="UTF-8"?>
<svg id="Capa_2" data-name="Capa 2" xmlns="http://www.w3.org/2000/svg" viewBox="0 0 81.52 80">
  <defs>
    <style>
      .cls-1 {
        fill: #f0971c;
      }

      .cls-2 {
        fill: #32090a;
      }
    </style>
  </defs>
  <g id="Capa_2-2" data-name="Capa 2">
    <g>
      <path class="cls-2" d="M40.63,79.93c-7.68,0-15.36.13-23.03-.03-8.65-.18-15.63-6.21-17.29-14.66-.23-1.19-.29-2.43-.29-3.65C0,47.2,0,32.82,0,18.43.02,7.84,7.87.01,18.48,0c14.84,0,29.68,0,44.51,0,10.52,0,18.38,7.68,18.45,18.24.1,14.45.1,28.9,0,43.35-.07,10.55-7.61,18.14-18.17,18.33-7.55.14-15.1.03-22.64.03,0,0,0-.02,0-.02ZM33.21,20.59c-1.22,0-2.45,0-3.67,0-.62,0-1.13.01-1.19.86-.19,3.01-1.55,5.69-2.5,8.48-2.84,8.34-5.74,16.65-8.69,24.95-.5,1.4-.26,1.84,1.24,1.74,1.48-.1,2.97-.1,4.45,0,1.13.07,1.62-.42,1.92-1.42.56-1.91,1.23-3.79,1.78-5.71.28-.98.69-1.47,1.85-1.44,3.29.1,6.58.08,9.86,0,1.05-.02,1.46.38,1.75,1.32.62,2.03,1.37,4.02,2.03,6.03.27.84.71,1.25,1.67,1.2,1.67-.08,3.36-.12,5.03,0,1.8.14,1.84-.51,1.31-1.98-3.55-9.86-7.02-19.74-10.52-29.62q-1.57-4.44-6.3-4.44ZM53.91,42.84c0,2.57,0,5.15,0,7.72,0,6.45,0,6.42,6.48,6.06,1.04-.06,1.3-.42,1.29-1.38-.03-8.24-.03-16.48,0-24.72,0-1-.37-1.38-1.36-1.36-1.54.04-3.1.1-4.63-.01-1.5-.11-1.84.51-1.81,1.9.08,3.92.03,7.85.03,11.78ZM58.06,17.87c-2.6-.04-4.48,1.7-4.52,4.2-.05,2.56,1.78,4.49,4.26,4.49,2.53,0,4.38-1.83,4.42-4.37.04-2.51-1.67-4.28-4.16-4.32Z"/>
      <path class="cls-1" d="M33.21,20.59q4.74,0,6.3,4.44c3.5,9.88,6.97,19.76,10.52,29.62.53,1.47.49,2.12-1.31,1.98-1.67-.13-3.35-.08-5.03,0-.95.04-1.39-.36-1.67-1.2-.66-2.02-1.4-4-2.03-6.03-.29-.93-.7-1.34-1.75-1.32-3.29.07-6.58.09-9.86,0-1.17-.03-1.57.45-1.85,1.44-.55,1.91-1.22,3.8-1.78,5.71-.29,1-.79,1.49-1.92,1.42-1.48-.1-2.97-.1-4.45,0-1.5.1-1.73-.35-1.24-1.74,2.95-8.3,5.85-16.62,8.69-24.95.95-2.79,2.31-5.47,2.5-8.48.05-.85.57-.87,1.19-.86,1.22,0,2.45,0,3.67,0ZM33.24,27.62c-1.3,4.21-2.55,8.26-3.82,12.3-.22.7-.45,1.21.66,1.18,2.12-.05,4.25-.03,6.38,0,.7,0,.96-.25.75-.92-1.31-4.15-2.62-8.3-3.96-12.55Z"/>
      <path class="cls-1" d="M53.91,42.84c0-3.93.06-7.85-.03-11.78-.03-1.39.31-2.02,1.81-1.9,1.54.11,3.09.06,4.63.01.99-.03,1.36.35,1.36,1.36-.02,8.24-.02,16.48,0,24.72,0,.96-.26,1.32-1.29,1.38-6.48.36-6.48.39-6.48-6.06,0-2.57,0-5.15,0-7.72Z"/>
      <path class="cls-1" d="M58.06,17.87c2.49.04,4.19,1.81,4.16,4.32-.04,2.54-1.88,4.37-4.42,4.37-2.48,0-4.31-1.93-4.26-4.49.05-2.5,1.92-4.24,4.52-4.2Z"/>
      <path class="cls-2" d="M33.24,27.62c1.34,4.25,2.65,8.4,3.96,12.55.21.67-.05.93-.75.92-2.13-.02-4.25-.04-6.38,0-1.11.03-.88-.48-.66-1.18,1.28-4.04,2.52-8.09,3.82-12.3Z"/>
    </g>
  </g>
</svg>