<?xml version="1.0" encoding="UTF-8"?>
<svg id="Capa_2" data-name="Capa 2" xmlns="http://www.w3.org/2000/svg" viewBox="0 0 81.55 80">
  <defs>
    <style>
      .cls-1 {
        fill: #0e1b5a;
      }

      .cls-2 {
        fill: #9291c2;
      }
    </style>
  </defs>
  <g id="Capa_2-2" data-name="Capa 2">
    <g>
      <path class="cls-1" d="M40.76,79.96c-7.68,0-15.36.11-23.04-.03C7.73,79.75.06,71.87.03,61.87c-.04-14.59-.04-29.17,0-43.76C.05,7.97,7.97.04,18.09.02c15.1-.03,30.21-.03,45.31,0,9.98.02,17.96,7.72,18.05,17.68.14,14.91.13,29.82,0,44.73-.09,9.56-7.88,17.31-17.45,17.49-7.74.15-15.49.03-23.23.03Z"/>
      <path class="cls-2" d="M26.58,45.57v11.14h-7.3V21.56l.58-.58h13.83c2.71,0,7.33,2.65,9.02,4.81,6.3,8.07-.16,19.77-10.17,19.77h-5.95ZM26.58,28.09v10.37c1.94,1.2,6.3.56,8.34-.5,3.7-1.93,3.83-7.81-.12-9.64-1.4-.65-7.81-1.54-8.22-.23Z"/>
      <path class="cls-2" d="M65.76,29.05v7.3c-2.94.13-6.17.49-8.45,2.5v17.28l-.58.58h-7.11v-25.93c0-.12-.53-.55-.38-.96h6.72l1.15,3.07c2.2-2.33,5.33-4,8.64-3.84Z"/>
    </g>
  </g>
</svg>