<?xml version="1.0" encoding="UTF-8"?>
<svg id="Capa_2" data-name="Capa 2" xmlns="http://www.w3.org/2000/svg" viewBox="0 0 74.28 79.58">
  <defs>
    <style>
      .cls-1 {
        fill: #c85f6d;
      }

      .cls-2 {
        fill: #fff;
      }

      .cls-3 {
        fill: #8698a3;
      }

      .cls-4 {
        fill: #665863;
      }
    </style>
  </defs>
  <g id="Capa_2-2" data-name="Capa 2">
    <g>
      <path class="cls-2" d="M63.54,5.28c.07,1.75-.05,3.53,0,5.28,1.75.05,3.53-.07,5.28,0,.46,15.73.09,31.77,0,47.52h-5.28v5.28H10.74v-5.28h-5.28c-.09-15.75-.46-31.8,0-47.52,1.75-.07,3.53.05,5.28,0,.05-1.75-.07-3.53,0-5.28,17.07-.5,35.73-.5,52.8,0ZM26.58,21.12h-5.28v21.12h5.28v-21.12ZM52.98,21.12h-5.28v21.12h5.28v-21.12ZM26.58,47.52h-10.56v5.28h10.56v-5.28ZM58.26,47.52h-10.56v5.28h10.56v-5.28Z"/>
      <path class="cls-4" d="M10.74,5.28c.07-1.75-.05-3.53,0-5.28h52.8c.05,1.75-.07,3.53,0,5.28-17.07-.5-35.73-.5-52.8,0Z"/>
      <path class="cls-4" d="M10.74,5.28c-.07,1.75.05,3.53,0,5.28-1.75.05-3.53-.07-5.28,0,.05-1.75-.04-3.53,0-5.28,1.75-.03,3.53.05,5.28,0Z"/>
      <path class="cls-4" d="M63.54,5.28c1.75.05,3.53-.04,5.28,0,.03,1.75-.05,3.53,0,5.28-1.75-.07-3.53.05-5.28,0-.05-1.75.07-3.53,0-5.28Z"/>
      <path class="cls-4" d="M5.46,10.56c-.46,15.73-.09,31.77,0,47.52.02,3.51-.05,7.05,0,10.56-1.76,0-3.52,0-5.28,0-.56-19.32.42-38.75,0-58.09,1.75-.05,3.53.07,5.28,0Z"/>
      <path class="cls-4" d="M68.82,10.56c1.75.07,3.53-.05,5.28,0-.43,19.33.56,38.76,0,58.09-1.76,0-3.53,0-5.28,0,.05-3.51-.02-7.05,0-10.56.09-15.75.46-31.8,0-47.52Z"/>
      <path class="cls-4" d="M5.46,68.65c1.76,0,3.53,0,5.28,0,.04,1.75-.06,3.53,0,5.28-1.75-.02-3.53.05-5.28,0-.05-1.75.02-3.53,0-5.28Z"/>
      <path class="cls-4" d="M68.82,68.65c-.02,1.75.05,3.53,0,5.28-1.75.05-3.53-.02-5.28,0,.05-1.75-.04-3.53,0-5.28,1.76,0,3.53,0,5.28,0Z"/>
      <path class="cls-4" d="M63.54,73.93c-.05,1.75.05,3.53,0,5.28-17.07.5-35.73.5-52.8,0-.05-1.75.05-3.53,0-5.28,17.55.24,35.25.24,52.8,0Z"/>
      <path class="cls-3" d="M5.46,58.08h5.28v5.28h52.8v-5.28h5.28c-.02,3.51.05,7.05,0,10.56-1.76,0-3.53,0-5.28,0-.04,1.75.06,3.53,0,5.28-17.55.24-35.25.24-52.8,0-.05-1.75.04-3.53,0-5.28-1.76,0-3.53,0-5.28,0-.05-3.51.02-7.05,0-10.56Z"/>
      <rect class="cls-4" x="21.3" y="21.12" width="5.28" height="21.12"/>
      <rect class="cls-4" x="47.7" y="21.12" width="5.28" height="21.12"/>
      <rect class="cls-1" x="16.02" y="47.52" width="10.56" height="5.28"/>
      <rect class="cls-1" x="47.7" y="47.52" width="10.56" height="5.28"/>
    </g>
  </g>
</svg>