<?xml version="1.0" encoding="UTF-8"?>
<svg id="Capa_2" data-name="Capa 2" xmlns="http://www.w3.org/2000/svg" viewBox="0 0 80 80">
  <defs>
    <style>
      .cls-1 {
        fill: #639;
      }

      .cls-2 {
        fill: #fff;
      }
    </style>
  </defs>
  <g id="Capa_2-2" data-name="Capa 2">
    <g>
      <path id="bg" class="cls-1" d="M0,0h67.2c7.07,0,12.8,5.73,12.8,12.8v54.4c0,7.07-5.73,12.8-12.8,12.8H12.8c-7.07,0-12.8-5.73-12.8-12.8V0Z"/>
      <path id="fg" class="cls-2" d="M28.65,73.6c-5.14,0-8.31-2.9-8.25-8.22v-13.47c0-2.7.79-4.75,2.37-6.16,2.84-2.74,9.43-2.9,12.21.04,1.71,1.51,2.36,4.6,2.21,7.48h-5.9c.04-1.13-.02-2.85-.68-3.49-.86-1.17-3.15-1.03-3.75.19-.37.66-.56,1.64-.56,2.93v11.69c0,2.45.85,3.69,2.56,3.72.8,0,1.4-.29,1.81-.87.58-.69.66-2.21.62-3.31h5.9c.4,5.61-2.91,9.53-8.54,9.46h0ZM47.37,73.6c-5.69.08-8.24-3.97-8.08-9.46h5.57c-.15,2.39.67,4.57,2.64,4.42.88,0,1.5-.28,1.86-.83.68-1.01.81-3.92-.16-5.04-.68-1.08-3.12-2.04-4.41-2.69-1.84-.88-3.17-1.93-3.98-3.14-1.83-2.69-1.66-8.6.91-10.99,2.49-2.95,9.01-3.09,11.51-.06,1.54,1.56,2.21,4.63,2.08,7.46h-5.36c.05-1.16-.06-3.04-.52-3.72-.32-.58-.91-.87-1.79-.87-1.57,0-2.35.94-2.35,2.81.02,1.99.79,2.8,2.6,3.64,2.34.91,5.31,2.46,6.39,4.34,3.22,5.72,1.01,14.47-6.89,14.13h0ZM65.35,73.6c-5.69.08-8.24-3.97-8.08-9.46h5.57c-.15,2.39.67,4.57,2.64,4.42.88,0,1.5-.28,1.86-.83.68-1.01.81-3.92-.16-5.04-.68-1.08-3.12-2.04-4.41-2.69-1.84-.88-3.17-1.93-3.98-3.14-1.83-2.69-1.66-8.6.91-10.99,2.49-2.95,9.01-3.09,11.51-.06,1.54,1.56,2.21,4.63,2.08,7.46h-5.36c.05-1.16-.06-3.04-.52-3.72-.32-.58-.91-.87-1.79-.87-1.57,0-2.35.94-2.35,2.81.02,1.99.79,2.8,2.6,3.64,2.34.91,5.31,2.46,6.39,4.34,3.22,5.72,1.01,14.47-6.89,14.13h0Z"/>
    </g>
  </g>
</svg>