<?xml version="1.0" encoding="UTF-8"?>
<svg id="Capa_2" data-name="Capa 2" xmlns="http://www.w3.org/2000/svg" viewBox="0 0 56.69 80">
  <defs>
    <style>
      .cls-1 {
        fill: #fff;
      }

      .cls-2 {
        fill: #e44d26;
      }

      .cls-3 {
        fill: #f16529;
      }

      .cls-4 {
        fill: #ebebeb;
      }
    </style>
  </defs>
  <g id="Capa_2-2" data-name="Capa 2">
    <g>
      <path class="cls-1" d="M5.28,0h3.59v3.56h3.31V0h3.59v10.78h-3.59v-3.59h-3.28v3.59h-3.62M20.53,3.59h-3.17V0h9.95v3.59h-3.19v7.19h-3.59M28.89,0h3.77l2.31,3.8,2.31-3.8h3.77v10.78h-3.59v-5.34l-2.52,3.87-2.52-3.87v5.34h-3.53M42.83,0h3.59v7.22h5.09v3.56h-8.69"/>
      <path class="cls-2" d="M5.16,73.59L0,15.72h56.69l-5.16,57.84-23.23,6.44"/>
      <path class="cls-3" d="M28.34,75.08V20.47h23.17l-4.42,49.37"/>
      <path class="cls-4" d="M10.53,27.55h17.81v7.09h-10.03l.66,7.27h9.38v7.08h-15.88M12.78,52.55h7.13l.5,5.67,7.94,2.13v7.41l-14.56-4.06"/>
      <path class="cls-1" d="M46.09,27.55h-17.78v7.09h17.12M44.8,41.91h-16.48v7.09h8.75l-.83,9.22-7.92,2.13v7.38l14.53-4.03"/>
    </g>
  </g>
</svg>